<svg width="180" height="180" viewBox="0 0 180 180" fill="none" xmlns="http://www.w3.org/2000/svg">
<path d="M45.0859 112.047C45.0859 109.443 44.9688 107.659 44.7344 106.695C44.5 105.706 44.0703 105.211 43.4453 105.211C43.0547 105.211 42.7031 105.341 42.3906 105.602C42.4427 106.07 42.5208 106.695 42.625 107.477C42.7292 108.258 42.7812 109.924 42.7812 112.477V115.016C42.7812 116.786 42.7422 118.076 42.6641 118.883C42.5859 119.69 42.5208 120.38 42.4688 120.953C42.4427 121.266 42.4167 121.578 42.3906 121.891C42.7031 122.151 43.0547 122.281 43.4453 122.281C44.0703 122.281 44.5 121.799 44.7344 120.836C44.9688 119.846 45.0859 118.049 45.0859 115.445V112.047ZM43.5234 140.25C38.888 140.25 34.6302 139.299 30.75 137.398C26.8958 135.471 23.7839 132.542 21.4141 128.609C19.0443 124.651 17.8594 119.716 17.8594 113.805C17.8594 105.237 20.4375 98.5443 25.5938 93.7266C30.1771 89.4818 36.0755 87.3594 43.2891 87.3594C51.1276 87.3594 57.3255 89.7943 61.8828 94.6641C66.4661 99.5078 68.7578 105.888 68.7578 113.805C68.7578 122.607 66.3099 129.326 61.4141 133.961C56.9609 138.154 50.9974 140.25 43.5234 140.25ZM93.7188 96.0312V97.7891C92.6771 99.9505 91.8828 101.643 91.3359 102.867C90.7891 104.065 90.5156 104.885 90.5156 105.328C90.5156 106.083 90.9453 106.461 91.8047 106.461L99.5 89.5859C101.297 88.4141 103.745 87.8281 106.844 87.8281C109.969 87.8281 112.651 88.6875 114.891 90.4062C117.339 92.3333 118.562 94.9635 118.562 98.2969C118.562 101.083 117.612 103.831 115.711 106.539C113.81 109.221 111.323 111.552 108.25 113.531C106.818 112.724 105.529 112.32 104.383 112.32C103.237 112.32 102.664 112.88 102.664 114C103.862 114.234 104.943 114.573 105.906 115.016C106.896 115.432 108.055 116.253 109.383 117.477L119.773 127.047C119.018 135.484 114.799 139.703 107.117 139.703C104.279 139.703 101.844 138.974 99.8125 137.516C97.4167 135.823 95.5417 133.245 94.1875 129.781L90.5547 120.719H90.3594C89.5 120.719 89.0703 121.083 89.0703 121.812C89.0703 122.281 89.4349 123.414 90.1641 125.211C90.8932 127.164 91.987 129.768 93.4453 133.023V136.031C90.7109 138.479 86.7396 139.703 81.5312 139.703C78.7188 139.703 76.3099 139.065 74.3047 137.789C72.0391 136.409 70.9062 134.443 70.9062 131.891V91.5781C73.5885 89.1302 77.6641 87.9062 83.1328 87.9062C85.9714 87.9062 88.3802 88.5052 90.3594 89.7031C92.599 91.1354 93.7188 93.2448 93.7188 96.0312ZM138.875 88.6094H161.414C162.169 89.8594 162.729 91.2266 163.094 92.7109C163.458 94.1693 163.641 95.4844 163.641 96.6562C163.641 99.2865 163.12 101.266 162.078 102.594C161.062 103.922 159.63 104.586 157.781 104.586H142.039C141.076 104.586 140.594 104.964 140.594 105.719V106.031C140.594 106.188 140.62 106.292 140.672 106.344H159.344C159.812 107.151 160.216 108.167 160.555 109.391C160.867 110.719 161.023 111.904 161.023 112.945C161.023 116.044 160.451 118.466 159.305 120.211H150.828C146.87 120.211 144.188 120.367 142.781 120.68C141.375 120.966 140.503 121.214 140.164 121.422C139.826 121.656 139.656 121.956 139.656 122.32C139.656 122.685 139.839 122.971 140.203 123.18C141.557 122.737 142.977 122.424 144.461 122.242C146.414 122.06 148.536 121.969 150.828 121.969H161.805C163.393 124.208 164.188 126.904 164.188 130.055C164.188 131.826 163.966 133.518 163.523 135.133C163.081 136.747 162.417 138.049 161.531 139.039H132.273C129.044 139.039 126.453 138.258 124.5 136.695C122.365 135.029 121.297 132.581 121.297 129.352V92.2031C121.297 90.9531 122.729 90.0417 125.594 89.4688C128.458 88.8958 132.885 88.6094 138.875 88.6094Z" fill="#e0dfd5"/>
<path d="M45.0859 52.0469C45.0859 49.4427 44.9688 47.6589 44.7344 46.6953C44.5 45.7057 44.0703 45.2109 43.4453 45.2109C43.0547 45.2109 42.7031 45.3411 42.3906 45.6016C42.4427 46.0703 42.5208 46.6953 42.625 47.4766C42.7292 48.2578 42.7812 49.9245 42.7812 52.4766V55.0156C42.7812 56.7865 42.7422 58.0755 42.6641 58.8828C42.5859 59.6901 42.5208 60.3802 42.4688 60.9531C42.4427 61.2656 42.4167 61.5781 42.3906 61.8906C42.7031 62.151 43.0547 62.2812 43.4453 62.2812C44.0703 62.2812 44.5 61.7995 44.7344 60.8359C44.9688 59.8464 45.0859 58.0495 45.0859 55.4453V52.0469ZM43.5234 80.25C38.888 80.25 34.6302 79.2995 30.75 77.3984C26.8958 75.4714 23.7839 72.5417 21.4141 68.6094C19.0443 64.651 17.8594 59.7161 17.8594 53.8047C17.8594 45.237 20.4375 38.5443 25.5938 33.7266C30.1771 29.4818 36.0755 27.3594 43.2891 27.3594C51.1276 27.3594 57.3255 29.7943 61.8828 34.6641C66.4661 39.5078 68.7578 45.888 68.7578 53.8047C68.7578 62.6068 66.3099 69.3255 61.4141 73.9609C56.9609 78.1536 50.9974 80.25 43.5234 80.25ZM93.7188 36.0312V37.7891C92.6771 39.9505 91.8828 41.6432 91.3359 42.8672C90.7891 44.0651 90.5156 44.8854 90.5156 45.3281C90.5156 46.0833 90.9453 46.4609 91.8047 46.4609L99.5 29.5859C101.297 28.4141 103.745 27.8281 106.844 27.8281C109.969 27.8281 112.651 28.6875 114.891 30.4062C117.339 32.3333 118.562 34.9635 118.562 38.2969C118.562 41.0833 117.612 43.8307 115.711 46.5391C113.81 49.2214 111.323 51.5521 108.25 53.5312C106.818 52.724 105.529 52.3203 104.383 52.3203C103.237 52.3203 102.664 52.8802 102.664 54C103.862 54.2344 104.943 54.5729 105.906 55.0156C106.896 55.4323 108.055 56.2526 109.383 57.4766L119.773 67.0469C119.018 75.4844 114.799 79.7031 107.117 79.7031C104.279 79.7031 101.844 78.974 99.8125 77.5156C97.4167 75.8229 95.5417 73.2448 94.1875 69.7812L90.5547 60.7188H90.3594C89.5 60.7188 89.0703 61.0833 89.0703 61.8125C89.0703 62.2812 89.4349 63.4141 90.1641 65.2109C90.8932 67.1641 91.987 69.7682 93.4453 73.0234V76.0312C90.7109 78.4792 86.7396 79.7031 81.5312 79.7031C78.7188 79.7031 76.3099 79.0651 74.3047 77.7891C72.0391 76.4089 70.9062 74.4427 70.9062 71.8906V31.5781C73.5885 29.1302 77.6641 27.9062 83.1328 27.9062C85.9714 27.9062 88.3802 28.5052 90.3594 29.7031C92.599 31.1354 93.7188 33.2448 93.7188 36.0312ZM138.875 28.6094H161.414C162.169 29.8594 162.729 31.2266 163.094 32.7109C163.458 34.1693 163.641 35.4844 163.641 36.6562C163.641 39.2865 163.12 41.2656 162.078 42.5938C161.062 43.9219 159.63 44.5859 157.781 44.5859H142.039C141.076 44.5859 140.594 44.9635 140.594 45.7188V46.0312C140.594 46.1875 140.62 46.2917 140.672 46.3438H159.344C159.812 47.151 160.216 48.1667 160.555 49.3906C160.867 50.7188 161.023 51.9036 161.023 52.9453C161.023 56.0443 160.451 58.4661 159.305 60.2109H150.828C146.87 60.2109 144.188 60.3672 142.781 60.6797C141.375 60.9661 140.503 61.2135 140.164 61.4219C139.826 61.6562 139.656 61.9557 139.656 62.3203C139.656 62.6849 139.839 62.9714 140.203 63.1797C141.557 62.737 142.977 62.4245 144.461 62.2422C146.414 62.0599 148.536 61.9688 150.828 61.9688H161.805C163.393 64.2083 164.188 66.9036 164.188 70.0547C164.188 71.8255 163.966 73.5182 163.523 75.1328C163.081 76.7474 162.417 78.0495 161.531 79.0391H132.273C129.044 79.0391 126.453 78.2578 124.5 76.6953C122.365 75.0286 121.297 72.5807 121.297 69.3516V32.2031C121.297 30.9531 122.729 30.0417 125.594 29.4688C128.458 28.8958 132.885 28.6094 138.875 28.6094Z" fill="#e0dfd5"/>
</svg>
