<svg width="180" height="180" viewBox="0 0 180 180" fill="none" xmlns="http://www.w3.org/2000/svg">
<g clip-path="url(#clip0_1180_6)">
<path d="M31.1798 70.8251C31.2601 70.9171 31.5271 71.0113 31.9809 71.1077C32.4346 71.2042 32.8189 71.0987 33.1339 70.7912C33.4488 70.4838 33.6926 69.9241 33.8652 69.1121L34.4438 66.3897C34.6266 65.53 34.6486 64.8983 34.5098 64.4944C34.3999 64.0717 34.1062 63.8096 33.6286 63.708C33.1749 63.6116 32.8543 63.5934 32.6668 63.6534C32.6653 63.7778 32.6341 63.9834 32.5732 64.2699L31.1798 70.8251ZM28.6339 87.2065L27.4689 92.6871C26.2304 93.3473 24.595 93.761 22.5627 93.928C20.5355 94.0712 18.4831 93.922 16.4055 93.4804C13.4443 92.851 11.1422 91.7626 9.49932 90.2153C7.62925 88.4451 6.95817 86.3182 7.48607 83.8346L14.7193 49.8048C14.8818 49.0406 15.5576 48.3856 16.7469 47.8397C17.9601 47.2988 19.5521 46.9134 21.5228 46.6833C25.7474 46.1836 30.391 46.4717 35.4537 47.5478C42.4507 49.0351 47.6562 51.9636 51.0704 56.3334C54.4845 60.7032 55.5647 65.8373 54.3109 71.7358C53.0622 77.6104 50.2156 81.7851 45.7709 84.2598C41.5051 86.5978 36.1721 87.0866 29.7722 85.7263C28.3154 85.4166 26.7868 84.917 25.1862 84.2273C23.6146 83.5189 22.5701 82.9724 22.0528 82.5879C21.8212 82.7383 21.6698 82.9807 21.5988 83.315C21.3399 84.5329 23.6849 85.8301 28.6339 87.2065ZM80.1841 80.53C80.6917 78.1419 80.932 76.4833 80.9048 75.554C80.8828 74.6008 80.5852 74.0634 80.0121 73.9415C79.6539 73.8654 79.3061 73.9163 78.9688 74.0942C78.9252 74.5342 78.875 75.1225 78.8182 75.8593C78.7615 76.596 78.4844 78.1345 77.9869 80.4748L77.492 82.8031C77.1469 84.427 76.8598 85.6015 76.6308 86.3266C76.4018 87.0516 76.2076 87.6718 76.0481 88.187C75.9634 88.4685 75.8786 88.75 75.7938 89.0315C76.0296 89.3312 76.3266 89.5191 76.6848 89.5952C77.2579 89.7171 77.7459 89.359 78.1486 88.5211C78.5564 87.6594 79.0141 86.0344 79.5217 83.6464L80.1841 80.53ZM73.254 106.088C69.0033 105.185 65.2841 103.483 62.0964 100.983C58.9377 98.465 56.655 95.1718 55.2484 91.104C53.8468 87.0122 53.7221 82.2559 54.8744 76.835C56.5444 68.9783 60.2131 63.3435 65.8805 59.9306C70.9108 56.9315 76.7335 56.1349 83.3484 57.541C90.5364 59.0688 95.7454 62.5097 98.9753 67.8637C102.234 73.1989 103.092 79.4963 101.549 86.756C99.8332 94.8276 96.2789 100.512 90.8858 103.808C85.985 106.785 80.1077 107.545 73.254 106.088ZM128.592 85.4656L149.834 89.9807C150.774 92.2521 150.942 94.8087 150.338 97.6505C149.739 100.468 148.666 102.637 147.121 104.155L145.652 103.843L143.368 114.589C137.795 117.673 131.152 118.395 123.439 116.755C118.735 115.755 114.733 114.031 111.435 111.583C107.827 108.944 105.291 105.672 103.825 101.766C102.215 97.4803 101.993 92.5911 103.161 87.0986C104.821 79.2897 108.445 73.7453 114.034 70.4656C119.344 67.3261 125.796 66.5635 133.39 68.1777C137.139 68.9746 140.554 70.287 143.635 72.115C146.74 73.948 149.082 75.9059 150.661 77.9887C150.356 79.4215 149.804 81.1387 149.004 83.1401C148.228 85.1467 147.461 86.6434 146.702 87.6302L127.824 83.6177C126.888 84.2672 125.911 85.2825 124.893 86.6636C123.9 88.0499 123.192 89.734 122.771 91.7161C122.192 94.4385 122.419 96.7205 123.45 98.562C124.344 100.225 125.723 101.254 127.586 101.65C128.35 101.812 128.788 101.631 128.899 101.106L129.075 100.282L128.681 100.198C127.104 99.863 125.92 98.9749 125.129 97.5336C124.366 96.0736 124.228 94.1973 124.715 91.9047C125.324 89.0391 126.617 86.8927 128.592 85.4656ZM167.182 102.953C166.056 102.14 165.016 101.632 164.061 101.429C163.106 101.226 162.534 101.566 162.347 102.449L162.316 102.593C164.998 103.362 167.069 104.951 168.529 107.358C169.994 109.741 170.43 112.329 169.836 115.123C169.247 117.894 167.722 120.078 165.261 121.676C162.781 123.246 160.12 123.728 157.278 123.124C154.436 122.52 152.214 120.999 150.61 118.562C149.036 116.106 148.548 113.469 149.147 110.651C149.553 108.74 150.404 107.087 151.699 105.69C153.023 104.274 154.584 103.27 156.382 102.679C155.477 99.8911 154.938 96.7937 154.763 93.3871C154.589 89.9805 154.87 86.5459 155.606 83.0832L158.088 71.4056C159.243 70.9024 160.669 70.5939 162.365 70.4803C164.062 70.3667 165.734 70.485 167.382 70.8352C170.964 71.5966 173.35 73.0523 174.54 75.2022C175.76 77.3333 175.915 80.5362 175.006 84.8108L174.519 87.1034C173.346 92.6198 170.901 97.903 167.182 102.953Z" fill="#e0dfd5"/>
</g>
</svg>
