<svg width="180" height="180" viewBox="0 0 180 180" fill="none" xmlns="http://www.w3.org/2000/svg">
<path d="M45.2918 90.3717L46.7711 86.5418C48.2397 86.854 49.0641 86.5858 49.2445 85.7372C49.3208 85.3783 49.3541 85.0613 49.3443 84.7863L44.8895 83.8394L42.3913 90.7785C38.6748 92.3763 34.6136 92.7069 30.2078 91.7704C26.8137 91.049 24.3253 89.8378 22.7425 88.137C20.9521 86.2897 20.3691 83.8975 20.9934 80.9603L21.3361 81.0331C22.9679 81.3799 23.8913 81.0475 24.1063 80.0358C24.1341 79.9053 24.1431 79.7025 24.1333 79.4276L18.6016 78.2518C17.067 74.7192 16.664 71.2396 17.3924 67.8129C17.8016 65.8874 18.4234 64.2458 19.2578 62.8882C20.099 61.498 21.2746 60.0594 22.7845 58.5725L27.533 59.5818C29.0342 59.9009 29.875 59.6362 30.0554 58.7877C30.1317 58.4287 30.165 58.1117 30.1552 57.8367L25.4067 56.8274C24.1847 53.4295 23.9448 49.9846 24.687 46.4926C25.0963 44.5671 25.7181 42.9255 26.5524 41.5679C27.3937 40.1777 28.5693 38.7391 30.0792 37.2522L35.8067 38.4696C37.4385 38.8165 38.3619 38.4841 38.577 37.4724C38.6047 37.3418 38.6137 37.1391 38.6039 36.8641L36.6458 36.4479L38.8276 30.516C41.2293 29.9691 43.3306 29.6312 45.1317 29.5024C46.9398 29.3409 48.9697 29.4995 51.2216 29.9782C54.583 30.6927 56.9715 32.0531 58.387 34.0595C59.8025 36.0659 60.2154 38.4561 59.6258 41.2301C59.4731 41.9481 59.2681 42.672 59.0107 43.4018L61.8499 44.0053C63.2533 44.3036 64.0417 44.0448 64.2151 43.2289C64.2844 42.9025 64.3142 42.6019 64.3045 42.3269L62.3953 41.9211C62.4557 41.7975 62.5171 41.5888 62.5795 41.2951L62.694 40.7566C63.0061 39.288 62.7912 37.571 62.0493 35.6054C66.188 34.268 70.4603 34.0675 74.8661 35.004C78.2275 35.7185 80.616 37.0789 82.0315 39.0853C83.447 41.0917 83.8599 43.4819 83.2702 46.2559C83.1176 46.9739 82.9126 47.6978 82.6551 48.4276L85.1518 48.9582C85.959 50.9377 86.4641 52.7335 86.6672 54.3457C86.8703 55.9579 86.7706 57.7105 86.3683 59.6034C85.6469 62.9975 83.847 66.0088 80.9688 68.6375L75.9756 67.5762C74.4743 67.2571 73.637 67.5055 73.4636 68.3214C73.3803 68.713 73.3436 69.0463 73.3534 69.3212L78.5424 70.4242C79.7416 74.0901 79.9805 77.6201 79.259 81.0142C78.5445 84.3757 76.7482 87.3707 73.8699 89.9994L68.534 88.8652L66.0358 95.8043C62.8088 97.5061 58.8619 97.861 54.195 96.869C49.5607 95.884 46.593 93.7182 45.2918 90.3717ZM53.0178 59.3195L52.3814 59.1842L50.1194 65.2525C50.0084 65.7747 50.0627 66.1614 50.2821 66.4127C50.5342 66.671 50.954 66.8625 51.5414 66.9874L52.2268 67.1331C53.7001 63.2507 54.4784 61.1137 54.5616 60.7221C54.6241 60.4283 54.5456 60.1558 54.3261 59.9045C54.1393 59.6601 53.7032 59.4651 53.0178 59.3195Z" fill="#e0dfd5"/>
<path fill-rule="evenodd" clip-rule="evenodd" d="M23.4648 80.9487C22.995 81.2068 22.2854 81.2349 21.3361 81.0331L20.9934 80.9603C20.8748 81.5184 20.7997 82.0569 20.7683 82.5757C20.6343 84.787 21.2924 86.6408 22.7425 88.137C24.3253 89.8378 26.8137 91.049 30.2078 91.7704C34.6136 92.7069 38.6748 92.3763 42.3913 90.7785L44.8895 83.8394L49.3443 84.7863C49.3541 85.0613 49.3208 85.3783 49.2445 85.7372C49.2065 85.9161 49.1398 86.0692 49.0445 86.1965C49.0011 86.2545 48.9518 86.3071 48.8965 86.3544C48.4975 86.6957 47.789 86.7582 46.7711 86.5418L45.2918 90.3717C46.593 93.7182 49.5607 95.884 54.195 96.869C58.8619 97.861 62.8088 97.5061 66.0358 95.8043L68.534 88.8652L73.8699 89.9994C76.7482 87.3707 78.5445 84.3757 79.259 81.0142C79.9805 77.6201 79.7416 74.0901 78.5424 70.4242L73.3534 69.3212C73.3436 69.0463 73.3803 68.713 73.4636 68.3214C73.4997 68.1512 73.5648 68.0058 73.6586 67.885C73.6967 67.836 73.7396 67.7911 73.7872 67.7502C74.1849 67.4086 74.9144 67.3506 75.9756 67.5762L80.9688 68.6375C83.847 66.0088 85.6469 62.9975 86.3683 59.6034C86.7706 57.7105 86.8703 55.9579 86.6672 54.3457C86.4641 52.7335 85.959 50.9377 85.1518 48.9582L82.6551 48.4276C82.84 47.9036 82.9978 47.3828 83.1286 46.8649C83.18 46.6614 83.2272 46.4584 83.2702 46.2559C83.8599 43.4819 83.447 41.0917 82.0315 39.0853C80.616 37.0789 78.2275 35.7185 74.8661 35.004C71.0145 34.1853 67.265 34.2355 63.6176 35.1547C63.0927 35.2869 62.5699 35.4372 62.0493 35.6054C62.2266 36.0752 62.3738 36.5308 62.491 36.9722C62.8179 38.2044 62.9102 39.326 62.7679 40.337C62.7479 40.4791 62.7232 40.619 62.694 40.7566L62.5795 41.2951C62.5171 41.5888 62.4557 41.7975 62.3953 41.9211L64.3045 42.3269C64.3142 42.6019 64.2844 42.9025 64.2151 43.2289C64.1777 43.4049 64.1117 43.5549 64.0171 43.679C63.9572 43.7576 63.8858 43.8258 63.803 43.8836C63.4101 44.158 62.7591 44.1985 61.8499 44.0053L59.0107 43.4018C59.1955 42.8779 59.3533 42.357 59.4841 41.8391C59.5355 41.6357 59.5827 41.4326 59.6258 41.2301C60.2154 38.4561 59.8025 36.0659 58.387 34.0595C56.9715 32.0531 54.583 30.6927 51.2216 29.9782C48.9697 29.4995 46.9398 29.3409 45.1317 29.5024C43.3306 29.6312 41.2293 29.9691 38.8276 30.516L36.6458 36.4479L38.6039 36.8641C38.6137 37.1391 38.6047 37.3418 38.577 37.4724C38.534 37.6747 38.4626 37.8499 38.3629 37.9979C38.2542 38.1594 38.1117 38.2885 37.9354 38.3853C37.4656 38.6433 36.7561 38.6714 35.8067 38.4696L30.0792 37.2522C28.5693 38.7391 27.3937 40.1777 26.5524 41.5679C25.7181 42.9255 25.0963 44.5671 24.687 46.4926C23.9448 49.9846 24.1847 53.4295 25.4067 56.8274L30.1552 57.8367C30.165 58.1117 30.1317 58.4287 30.0554 58.7877C30.0178 58.9646 29.9515 59.1161 29.8564 59.2423C29.8116 59.3018 29.7604 59.3557 29.7028 59.4039C29.2969 59.7437 28.5736 59.803 27.533 59.5818L22.7845 58.5725C21.2746 60.0594 20.099 61.498 19.2578 62.8882C18.4234 64.2458 17.8016 65.8874 17.3924 67.8129C16.664 71.2396 17.067 74.7192 18.6016 78.2518L24.1333 79.4276C24.1431 79.7025 24.1341 79.9053 24.1063 80.0358C24.0633 80.2382 23.992 80.4133 23.8923 80.5613C23.7835 80.7228 23.641 80.8519 23.4648 80.9487ZM19.7804 76.8391L25.7141 78.1003L25.7592 79.3698C25.7698 79.6684 25.7691 80.038 25.6977 80.3741C25.4808 81.3947 24.8287 82.2056 23.8036 82.5747C23.352 82.7372 22.8713 82.7982 22.3851 82.7925C22.3044 84.5507 22.8483 85.9085 23.9108 87.0047L23.9223 87.0166L23.9335 87.0287C25.2013 88.391 27.3265 89.4947 30.5461 90.179C34.4021 90.9987 37.9058 90.7694 41.1063 89.5448L43.8395 81.953L50.9251 83.4591L50.9702 84.7285C50.986 85.1721 50.9313 85.6267 50.8359 86.0755C50.625 87.0677 49.9593 87.808 48.9941 88.1219C48.6228 88.2427 48.2322 88.2927 47.8381 88.2946L47.0491 90.3376C48.1966 92.7231 50.547 94.4304 54.5332 95.2777C58.6599 96.1548 62.0195 95.8838 64.727 94.6366L67.484 86.9788L73.3705 88.23C75.6762 85.9471 77.082 83.4311 77.6677 80.6759C78.2662 77.8599 78.1457 74.9148 77.2669 71.8163L71.7726 70.6485L71.7275 69.379C71.7114 68.9259 71.7726 68.4515 71.8722 67.9831C71.9693 67.5265 72.1782 67.0748 72.5384 66.6955C72.8955 66.3195 73.3284 66.0911 73.7589 65.9634C74.5667 65.7238 75.4711 65.8057 76.3138 65.9848L80.4692 66.868C82.7733 64.585 84.1843 62.0532 84.7769 59.2651C85.1485 57.5172 85.2295 55.95 85.053 54.549C84.8981 53.3193 84.5398 51.9278 83.9562 50.3674L80.5045 49.6337L81.1209 47.8863C81.3562 47.2193 81.5416 46.5632 81.6789 45.9176C82.1903 43.5116 81.815 41.6006 80.7021 40.0232C79.6031 38.4653 77.6491 37.2588 74.5278 36.5954C70.9433 35.8334 67.4751 35.8749 64.1036 36.7102C64.4528 38.0914 64.5577 39.4207 64.3623 40.6759L65.8852 40.9996L65.9304 42.2691C65.9457 42.7016 65.8978 43.1372 65.8064 43.5671C65.6 44.5382 64.9495 45.2694 64.0012 45.5807C63.2012 45.8433 62.3154 45.7675 61.5117 45.5967L56.86 44.6079L57.4764 42.8605C57.7117 42.1935 57.8972 41.5374 58.0344 40.8918C58.5458 38.4858 58.1705 36.5749 57.0576 34.9974C55.9586 33.4396 54.0046 32.233 50.8833 31.5696C48.7497 31.116 46.8864 30.9791 45.2764 31.1229L45.2621 31.1242L45.2478 31.1252C43.763 31.2314 42.0319 31.491 40.0472 31.9132L38.821 35.247L40.1847 35.5368L40.2298 36.8063C40.2405 37.1049 40.2398 37.4746 40.1684 37.8106C39.9514 38.8313 39.2993 39.6422 38.2742 40.0112C37.3914 40.329 36.3972 40.2584 35.4685 40.061L30.6114 39.0286C29.4704 40.2188 28.588 41.3466 27.9444 42.4102L27.9386 42.4198C27.2213 43.5869 26.6578 45.0458 26.2784 46.8309C25.6613 49.734 25.7849 52.5917 26.6553 55.4296L31.736 56.5095L31.7811 57.7789C31.7969 58.2226 31.7422 58.6772 31.6468 59.1259C31.4322 60.1354 30.7468 60.8695 29.7781 61.1744C28.9588 61.4324 28.0431 61.3535 27.1947 61.1732L23.3167 60.3489C22.1757 61.5391 21.2933 62.6669 20.6497 63.7305L20.6439 63.7401C19.9266 64.9072 19.3631 66.3661 18.9837 68.1511C18.3839 70.9733 18.6317 73.8572 19.7804 76.8391ZM51.3471 57.3011L53.3561 57.7281C53.764 57.8148 54.1643 57.9294 54.5231 58.0898C54.8517 58.2368 55.2622 58.4734 55.5822 58.8701C56.0754 59.4536 56.3312 60.2222 56.153 61.0603C56.0812 61.3981 55.8101 62.1707 55.4442 63.1753C55.0513 64.254 54.4854 65.7669 53.7479 67.7103L53.253 69.0145L51.2032 68.5788C50.4892 68.427 49.6987 68.1442 49.118 67.5492L49.0864 67.5169L49.0567 67.4829C48.3386 66.6605 48.375 65.6341 48.5281 64.9143L48.553 64.7968L51.3471 57.3011ZM54.3261 59.9045C54.1393 59.6601 53.7032 59.4651 53.0178 59.3195L52.3814 59.1842L50.1194 65.2525C50.0084 65.7747 50.0627 66.1614 50.2821 66.4127C50.5342 66.671 50.954 66.8625 51.5414 66.9874L52.2268 67.1331C53.7001 63.2507 54.4784 61.1137 54.5616 60.7221C54.6241 60.4283 54.5456 60.1558 54.3261 59.9045Z" fill="#B0233F"/>
<path d="M133.459 96.6304C132.65 96.8516 132.346 97.33 132.547 98.0656C132.735 98.7522 133.294 98.9682 134.226 98.7135C134.864 98.5393 135.298 98.2492 135.53 97.8433C135.762 97.4374 135.77 96.8421 135.556 96.0574L133.459 96.6304ZM135.419 109.732C137.553 109.149 139.057 108.58 139.933 108.024C140.809 107.469 141.16 106.872 140.986 106.235C140.946 106.087 140.862 105.926 140.735 105.75C139.012 106.774 137.047 107.588 134.84 108.191C131.53 109.096 128.642 109.042 126.178 108.029C123.428 106.935 121.648 104.905 120.837 101.938C120.02 98.9465 120.325 96.3991 121.753 94.2958C123.199 92.1614 125.43 90.6819 128.446 89.8576C130.653 89.2544 132.758 88.9556 134.763 88.9612C134.745 88.7026 134.726 88.5365 134.705 88.4629C134.551 87.8989 133.827 87.6095 132.531 87.5946C131.254 87.5485 129.744 87.7633 128.003 88.2392C124.374 89.2311 121.714 90.9727 120.023 93.464C118.357 95.9487 118.003 98.9442 118.961 102.451C119.913 105.933 121.889 108.292 124.888 109.527C127.912 110.757 131.422 110.825 135.419 109.732ZM140.337 124.833C134.55 126.414 128.944 126.537 123.519 125.2C118.1 123.887 113.444 121.312 109.549 117.475C105.529 113.567 102.732 108.731 101.157 102.969C99.8563 98.2118 99.4525 93.6971 99.9451 89.4251C100.438 85.153 101.704 81.3019 103.745 77.8717C105.803 74.4103 108.532 71.477 111.933 69.0717C115.328 66.6418 119.219 64.8271 123.609 63.6274C129.911 61.905 135.789 61.6688 141.243 62.9188C146.69 64.1443 151.33 66.6578 155.163 70.4593C159.009 74.3098 161.732 79.1654 163.334 85.026C166.049 94.9571 165.421 103.364 161.452 110.247C157.478 117.209 150.44 122.071 140.337 124.833ZM119.423 83.7458C122.298 81.8268 125.231 80.4585 128.223 79.6408C132.71 78.4143 136.394 78.5405 139.276 80.0194C142.175 81.467 144.134 84.0544 145.153 87.7817L146.741 93.5932C147.137 95.04 147.771 96.0128 148.646 96.5118C149.52 97.0107 150.447 97.1261 151.428 96.858C152.017 96.6972 152.217 96.2735 152.03 95.5869C151.124 95.6498 150.4 95.5053 149.856 95.1533C149.311 94.8013 148.905 94.1349 148.637 93.1541L146.707 86.0919C145.809 82.8061 143.859 80.3479 140.857 78.7176C137.237 76.7553 132.865 76.4746 127.74 77.8753C125.656 78.445 123.617 79.2788 121.625 80.3768C119.701 81.535 118.817 82.3961 118.971 82.9601C119.058 83.2789 119.209 83.5408 119.423 83.7458Z" fill="#e0dfd5"/>
<path fill-rule="evenodd" clip-rule="evenodd" d="M136.696 94.0591L137.125 95.6285C137.375 96.5435 137.5 97.6728 136.943 98.6497C136.422 99.5625 135.535 100.043 134.655 100.283C134.043 100.45 133.27 100.549 132.522 100.26C131.666 99.9303 131.179 99.2313 130.978 98.4946C130.8 97.8443 130.777 97.029 131.251 96.2824C131.704 95.5694 132.419 95.2282 133.03 95.0611L136.696 94.0591ZM141.182 103.591L142.054 104.797C142.25 105.07 142.447 105.409 142.555 105.806C142.764 106.569 142.642 107.328 142.256 107.985C141.9 108.589 141.361 109.045 140.805 109.398C139.71 110.093 138.003 110.713 135.848 111.302C131.601 112.463 127.71 112.431 124.275 111.035L124.268 111.032C120.746 109.58 118.459 106.785 117.392 102.88C116.338 99.0246 116.687 95.5183 118.672 92.5578L118.677 92.5504C120.636 89.6641 123.667 87.7376 127.574 86.6698C129.406 86.1692 131.081 85.917 132.57 85.968C133.297 85.9777 134.024 86.0621 134.65 86.312C135.314 86.5773 136.021 87.1053 136.275 88.034C136.346 88.2934 136.371 88.6321 136.386 88.8484L136.507 90.593L134.758 90.5881C132.919 90.583 130.96 90.857 128.875 91.427C126.15 92.1716 124.284 93.4601 123.1 95.2082L123.099 95.2097C121.996 96.8339 121.684 98.8661 122.407 101.509C123.089 104.006 124.526 105.621 126.779 106.517L126.797 106.524C128.843 107.365 131.347 107.459 134.411 106.622C136.496 106.052 138.323 105.291 139.903 104.351L141.182 103.591ZM130.737 87.6819C129.9 87.784 128.989 87.9698 128.003 88.2392C124.374 89.2311 121.714 90.9727 120.023 93.464C118.357 95.9487 118.003 98.9442 118.961 102.451C119.913 105.933 121.889 108.292 124.888 109.527C127.912 110.757 131.422 110.825 135.419 109.732C137.532 109.155 139.028 108.591 139.908 108.04C139.916 108.035 139.925 108.03 139.933 108.024C140.809 107.469 141.16 106.872 140.986 106.235C140.972 106.182 140.952 106.128 140.927 106.072C140.881 105.971 140.817 105.863 140.735 105.75C140.307 106.004 139.865 106.245 139.408 106.473C139.31 106.522 139.211 106.57 139.112 106.618C137.806 107.245 136.382 107.769 134.84 108.191C131.53 109.096 128.642 109.042 126.178 108.029C123.428 106.935 121.648 104.905 120.837 101.938C120.02 98.9465 120.325 96.3991 121.753 94.2958C123.199 92.1614 125.43 90.6819 128.446 89.8576C129.303 89.6232 130.145 89.4348 130.972 89.2923C131.48 89.2049 131.982 89.1348 132.477 89.082C132.49 89.0807 132.502 89.0794 132.514 89.0781C132.722 89.0563 132.93 89.0375 133.136 89.0218C133.151 89.0206 133.167 89.0195 133.182 89.0183C133.716 88.9788 134.243 88.9597 134.763 88.9612C134.745 88.7026 134.726 88.5365 134.705 88.4629C134.551 87.8989 133.827 87.6095 132.531 87.5946C131.977 87.5746 131.379 87.6037 130.737 87.6819ZM123.902 123.618L123.908 123.62C129.044 124.886 134.368 124.777 139.908 123.263C149.727 120.58 156.339 115.924 160.039 109.44L160.042 109.434C163.736 103.029 164.4 95.0968 161.765 85.4549C160.229 79.8361 157.637 75.2399 154.015 71.6122C150.408 68.0349 146.045 65.6666 140.886 64.5061L140.88 64.5046C135.728 63.3238 130.124 63.5332 124.038 65.1968C119.818 66.3502 116.104 68.0866 112.88 70.3946L112.873 70.4C109.651 72.6783 107.081 75.4445 105.143 78.7032C103.229 81.9211 102.03 85.5495 101.561 89.6114C101.096 93.6493 101.472 97.9539 102.726 102.54C104.229 108.041 106.885 112.616 110.683 116.309L110.69 116.316C114.371 119.942 118.764 122.374 123.902 123.618ZM155.163 70.4593C159.009 74.3098 161.732 79.1654 163.334 85.026C166.049 94.9571 165.421 103.364 161.452 110.247C157.478 117.209 150.44 122.071 140.337 124.833C134.55 126.414 128.944 126.537 123.519 125.2C118.1 123.887 113.444 121.312 109.549 117.475C105.529 113.567 102.732 108.731 101.157 102.969C99.8563 98.2118 99.4525 93.6971 99.9451 89.4251C100.438 85.153 101.704 81.3019 103.745 77.8717C105.803 74.4103 108.532 71.477 111.933 69.0717C115.328 66.6418 119.219 64.8271 123.609 63.6274C129.911 61.905 135.789 61.6688 141.243 62.9188C146.69 64.1443 151.33 66.6578 155.163 70.4593ZM119.24 85.8235L118.298 84.921C117.847 84.4894 117.557 83.9587 117.401 83.389C117.222 82.7312 117.395 82.144 117.602 81.7393C117.805 81.3428 118.097 81.0047 118.384 80.7255C118.96 80.1642 119.789 79.5833 120.786 78.9831L120.812 78.967L120.84 78.9519C122.939 77.7951 125.096 76.9112 127.311 76.3059C132.719 74.828 137.546 75.0722 141.632 77.2873C145.023 79.1286 147.261 81.9481 148.276 85.663L150.206 92.7251C150.426 93.5296 150.677 93.7472 150.739 93.7872C150.89 93.8848 151.226 94.0119 151.917 93.9639L153.247 93.8714L153.599 95.1579C153.744 95.689 153.824 96.4099 153.491 97.1153C153.13 97.8778 152.462 98.2621 151.857 98.4274C150.465 98.8079 149.092 98.64 147.839 97.9248C146.441 97.1267 145.626 95.683 145.172 94.0221L143.583 88.2106C142.661 84.836 140.954 82.676 138.549 81.4749L138.533 81.4669C136.144 80.2408 132.917 80.0445 128.652 81.2102C125.847 81.9768 123.072 83.266 120.326 85.099L119.24 85.8235ZM133.459 96.6304C132.65 96.8516 132.346 97.33 132.547 98.0656C132.735 98.7522 133.294 98.9682 134.226 98.7135C134.864 98.5393 135.298 98.2492 135.53 97.8433C135.55 97.809 135.568 97.7733 135.584 97.7363C135.761 97.3354 135.752 96.7758 135.556 96.0574L133.459 96.6304ZM121.625 80.3768C123.617 79.2788 125.656 78.445 127.74 77.8753C132.865 76.4746 137.237 76.7553 140.857 78.7176C143.859 80.3479 145.809 82.8061 146.707 86.0919L148.637 93.1541C148.905 94.1349 149.311 94.8013 149.856 95.1533C149.982 95.2351 150.118 95.3057 150.264 95.365C150.4 95.4203 150.544 95.4658 150.697 95.5017C150.818 95.5301 150.944 95.5525 151.076 95.5687C151.368 95.6047 151.686 95.6108 152.03 95.5869C152.101 95.8467 152.116 96.0688 152.076 96.2533C152.01 96.5565 151.794 96.758 151.428 96.858C150.892 97.0045 150.372 97.0365 149.868 96.954C149.45 96.8855 149.042 96.7381 148.646 96.5118C147.771 96.0128 147.137 95.04 146.741 93.5932L145.153 87.7817C144.134 84.0544 142.175 81.467 139.276 80.0194C136.394 78.5405 132.71 78.4143 128.223 79.6408C125.785 80.3072 123.385 81.3392 121.025 82.7369C120.871 82.828 120.718 82.9205 120.564 83.0147C120.183 83.2488 119.802 83.4925 119.423 83.7458C119.26 83.5896 119.133 83.4004 119.044 83.1781C119.016 83.1087 118.992 83.036 118.971 82.9601C118.866 82.575 119.245 82.0515 120.108 81.3894C120.509 81.0818 121.015 80.7443 121.625 80.3768Z" fill="#B0233F"/>
<path d="M93.2375 123.565C91.4982 122.796 89.9595 122.411 88.6216 122.411C87.2836 122.411 86.6147 123.03 86.6147 124.268V124.469C90.4278 124.737 93.6556 126.277 96.2981 129.088C98.9405 131.866 100.262 135.213 100.262 139.129C100.262 143.012 98.8401 146.376 95.997 149.221C93.1204 152.032 89.6919 153.438 85.7115 153.438C81.7312 153.438 78.3194 152.032 75.4763 149.221C72.6666 146.376 71.2617 142.979 71.2617 139.029C71.2617 136.351 71.9307 133.891 73.2686 131.649C74.64 129.373 76.4463 127.582 78.6873 126.277C76.6804 122.796 75.0749 118.796 73.8707 114.277C72.6666 109.759 72.0645 105.073 72.0645 100.22V83.8523C73.4693 82.8481 75.2923 82.0281 77.5333 81.3922C79.7744 80.7562 82.0489 80.4382 84.3569 80.4382C89.3742 80.4382 92.9866 81.7101 95.1942 84.2539C97.4353 86.7642 98.5558 91.015 98.5558 97.0063V100.22C98.5558 107.951 96.7831 115.733 93.2375 123.565Z" fill="#e0dfd5"/>
<path fill-rule="evenodd" clip-rule="evenodd" d="M86.6884 124.19C86.6522 124.358 86.6342 124.542 86.6342 124.743V124.943C90.5345 125.21 93.8362 126.744 96.5391 129.546C99.2419 132.315 100.593 135.65 100.593 139.553C100.593 143.422 99.1393 146.774 96.2311 149.609C93.2887 152.411 89.7818 153.812 85.7104 153.812C81.639 153.812 78.1492 152.411 75.241 149.609C72.367 146.774 70.93 143.388 70.93 139.452C70.93 136.784 71.6143 134.333 72.9829 132.098C74.3856 129.83 76.2332 128.045 78.5255 126.744C76.4727 123.275 74.8304 119.289 73.5987 114.787C72.367 110.284 71.7512 105.614 71.7512 100.777V84.4669C73.1882 83.4662 75.0528 82.649 77.3451 82.0153C79.6375 81.3816 81.964 81.0647 84.3247 81.0647C89.4568 81.0647 93.1519 82.3322 95.41 84.8671C97.7023 87.3688 98.8485 91.6048 98.8485 97.5754V100.777C98.8485 107.992 97.2586 115.251 94.0788 122.553C94.0249 122.677 93.9706 122.801 93.9158 122.924C93.7508 123.297 93.5817 123.67 93.4085 124.043C91.6294 123.275 90.0555 122.892 88.687 122.892C88.0045 122.892 87.4922 123.045 87.1501 123.352C86.9176 123.561 86.7637 123.84 86.6884 124.19ZM96.662 83.7922C93.9574 80.7624 89.695 79.4382 84.3247 79.4382C81.8086 79.4382 79.329 79.7763 76.89 80.4505C74.4734 81.1186 72.4184 82.0035 70.7815 83.1434L70.0828 83.6299V100.777C70.0828 105.75 70.7162 110.561 71.9867 115.206C73.095 119.257 74.5342 122.926 76.3132 126.204C74.3977 127.539 72.8093 129.228 71.5542 131.258L71.5504 131.264C70.0235 133.757 69.2617 136.498 69.2617 139.452C69.2617 143.822 70.8762 147.617 74.0543 150.752L74.0683 150.766C77.2873 153.867 81.1978 155.438 85.7104 155.438C90.2225 155.438 94.1464 153.868 97.3969 150.773L97.4108 150.759C100.619 147.631 102.262 143.87 102.262 139.553C102.262 135.244 100.753 131.505 97.7506 128.428C96.7314 127.372 95.6301 126.476 94.4499 125.743L94.9282 124.714C98.6418 116.721 100.517 108.739 100.517 100.777V97.5754C100.517 91.4927 99.3671 86.751 96.662 83.7922Z" fill="#B0233F"/>
<path d="M94.9995 21.1331L104.419 25.1249L100 35.5506L123.081 45.3321L127.499 34.9063L137.062 38.959L121.461 75.7729L79.398 57.9469L94.9995 21.1331ZM96.4351 43.9632L92.3519 53.5981L115.432 63.3795L119.516 53.7446L96.4351 43.9632Z" fill="#e0dfd5"/>
<path fill-rule="evenodd" clip-rule="evenodd" d="M94.1362 19L106.551 24.2615L102.133 34.6872L122.218 43.199L126.636 32.7732L139.195 38.0956L122.324 77.9054L77.265 58.8098L94.1362 19ZM123.081 45.3318L100 35.5504L104.419 25.1246L94.9994 21.1328L79.3978 57.9466L121.461 75.7726L137.062 38.9587L127.499 34.906L123.081 45.3318ZM92.3517 53.5978L96.4349 43.9629L119.515 53.7443L115.432 63.3792L92.3517 53.5978ZM114.569 61.2464L117.383 54.6075L97.2981 46.0957L94.4845 52.7347L114.569 61.2464Z" fill="#B0233F"/>
<path d="M115.259 112.42L150.012 127.148L136.807 158.306L128.778 154.903L139.291 130.097L112.568 118.771L115.259 112.42ZM138.477 138.021L135.887 144.133L105.604 133.702L107.54 126.465L138.477 138.021Z" fill="#e0dfd5"/>
<path fill-rule="evenodd" clip-rule="evenodd" d="M114.396 110.287L152.144 126.285L137.67 160.438L126.645 155.766L131.488 144.338L103.64 134.746L106.431 124.314L135.39 135.131L137.158 130.96L110.434 119.634L114.396 110.287ZM139.291 130.097L136.28 137.201L107.54 126.465L105.603 133.702L133.666 143.368L128.778 154.903L136.807 158.305L150.012 127.148L115.259 112.42L112.567 118.771L139.291 130.097Z" fill="#B0233F"/>
<path d="M35.811 93.192L45.7565 91.9575L47.2666 104.123C49.4379 121.616 41.6344 135.75 23.1935 142.637L16.4307 133.919C32.784 128.372 38.798 117.257 37.321 105.357L35.811 93.192ZM37.587 92.9715L47.5325 91.737L49.0426 103.903C50.5195 115.802 59.0686 125.11 76.2816 126.49L71.8556 136.597C52.2904 134.427 41.2684 122.631 39.097 105.137L37.587 92.9715Z" fill="#e0dfd5"/>
<path fill-rule="evenodd" clip-rule="evenodd" d="M33.9959 91.7778L48.9465 89.9221L50.6569 103.702C51.3531 109.311 53.7 114.234 57.8434 117.926C61.9947 121.626 68.0728 124.2 76.4114 124.868L78.6877 125.051L72.8656 138.346L71.676 138.214C61.5996 137.096 53.5891 133.481 47.81 127.771C47.098 127.067 46.4216 126.334 45.7809 125.571C45.346 126.467 44.8696 127.344 44.3512 128.2C40.1433 135.149 33.2599 140.614 23.7625 144.161L22.6413 144.58L13.7454 133.111L15.908 132.378C23.8301 129.691 29.0947 125.71 32.2155 121.107C35.3303 116.514 36.4025 111.166 35.7063 105.558L33.9959 91.7778ZM44.6516 124.149C44.914 123.572 45.1589 122.986 45.3862 122.391C45.752 122.912 46.1327 123.42 46.5282 123.916C52.0689 130.86 60.5311 135.341 71.8554 136.597L76.2814 126.49C75.7038 126.443 75.136 126.388 74.5778 126.324C58.5027 124.482 50.4698 115.402 49.0424 103.903L47.5323 91.737L35.8108 93.1919L37.3208 105.357C38.7483 116.857 33.179 127.625 18.042 133.342C17.5164 133.54 16.9793 133.733 16.4306 133.919L23.1933 142.637C33.8669 138.651 40.9768 132.237 44.6516 124.149Z" fill="#B0233F"/>
</svg>
