<svg
  xmlns="http://www.w3.org/2000/svg"
  viewBox="0 0 24 30"
  x="0px"
  y="0px"
  fill="#e4b363"
>
  <path
    d="M21,0H20a1,1,0,0,0,0,2h1a1.0006,1.0006,0,0,1,1,1V4a1,1,0,0,0,2,0V3A3.0033,3.0033,0,0,0,21,0Z"
  />
  <path
    d="M1,5A1,1,0,0,0,2,4V3A1.0006,1.0006,0,0,1,3,2H4A1,1,0,0,0,4,0H3A3.0033,3.0033,0,0,0,0,3V4A1,1,0,0,0,1,5Z"
  />
  <path
    d="M4,22H3a1.0006,1.0006,0,0,1-1-1V20a1,1,0,0,0-2,0v1a3.0033,3.0033,0,0,0,3,3H4a1,1,0,0,0,0-2Z"
  />
  <path
    d="M23,19a1,1,0,0,0-1,1v1a1.0006,1.0006,0,0,1-1,1H20a1,1,0,0,0,0,2h1a3.0033,3.0033,0,0,0,3-3V20A1,1,0,0,0,23,19Z"
  />
  <path
    d="M21.55,17.44A33.0038,33.0038,0,0,0,22,12a33.1243,33.1243,0,0,0-.45-5.45,4.9573,4.9573,0,0,0-4.11-4.1,33.4422,33.4422,0,0,0-10.89,0,4.9573,4.9573,0,0,0-4.1,4.11,33.1672,33.1672,0,0,0,0,10.89,4.9573,4.9573,0,0,0,4.11,4.1A33.0038,33.0038,0,0,0,12,22a33.1243,33.1243,0,0,0,5.45-.45A4.9573,4.9573,0,0,0,21.55,17.44ZM16.5,5A2.5,2.5,0,1,1,14,7.5,2.5023,2.5023,0,0,1,16.5,5Zm.63,14.58a31.4786,31.4786,0,0,1-10.25,0,2.9891,2.9891,0,0,1-2.24-1.75l3.08-4.62a2.7531,2.7531,0,0,1,4.56,0l2.89,4.34a.9957.9957,0,1,0,1.66-1.1l-2.89-4.34a.7632.7632,0,0,0-.08-.11H14a2.7337,2.7337,0,0,1,2.28,1.21l3.08,4.63A2.9783,2.9783,0,0,1,17.13,19.58Z"
  />
  <circle cx="16.5" cy="7.5" r="0.5" />
</svg>
