<svg width="180" height="180" viewBox="0 0 180 180" fill="none" xmlns="http://www.w3.org/2000/svg">
<path d="M28.25 111.973V132.569C27.3516 133.35 26.1504 134.005 24.6465 134.532C23.1426 135.059 21.3164 135.323 19.168 135.323C17.0195 135.323 15.1934 134.844 13.6895 133.887C11.9902 132.852 11.1406 131.387 11.1406 129.493V110.626H4.31445C2.9082 108.614 2.20508 106.417 2.20508 104.034C2.20508 102.413 2.45898 101.007 2.9668 99.8152C3.49414 98.6043 4.13867 97.6668 4.90039 97.0027H35.1934C35.7598 97.8816 36.2285 98.946 36.5996 100.196C36.9707 101.446 37.1563 102.686 37.1563 103.917C37.1563 106.221 36.6484 107.921 35.6328 109.014C34.6172 110.089 33.25 110.626 31.5313 110.626H22.9473C22.8887 110.762 22.8594 110.909 22.8594 111.065C22.8594 111.417 23.0645 111.651 23.4746 111.768C23.9043 111.905 24.8223 111.973 26.2285 111.973H28.25ZM44.8613 116.397C46.0137 116.397 47.0391 116.29 47.9375 116.075C48.8359 115.86 49.2852 115.538 49.2852 115.108C49.2852 114.835 49.1973 114.61 49.0215 114.434C47.8301 114.864 46.5313 115.079 45.125 115.079C43.2109 115.079 41.5996 114.425 40.291 113.116C38.9824 111.788 38.3281 109.884 38.3281 107.403C38.3281 105.762 38.6699 104.171 39.3535 102.628C41.8145 102.335 43.7285 101.846 45.0957 101.163C47.0098 100.186 48.6504 98.614 50.0176 96.446H55.2617C56.9414 96.446 58.1816 96.7585 58.9824 97.3835C59.9199 98.1453 60.3887 99.4832 60.3887 101.397V132.511C59.3926 133.428 58.2305 134.132 56.9024 134.62C55.5938 135.089 54.2461 135.323 52.8594 135.323C50.5742 135.323 48.7188 134.776 47.293 133.682C45.6719 132.452 44.8613 130.655 44.8613 128.292V116.397ZM62.5859 129.376V100.02C62.5859 99.0046 63.3965 98.1648 65.0176 97.5007C66.6582 96.8171 68.582 96.4753 70.7891 96.4753C72.0391 96.4753 73.2109 96.6316 74.3047 96.9441C75.418 97.2371 76.2676 97.6179 76.8535 98.0867C77.6543 99.1023 78.3867 100.137 79.0508 101.192C79.7149 102.247 81.209 104.708 83.5332 108.575C83.7481 108.575 83.9434 108.507 84.1192 108.37C84.2949 108.233 84.3828 108.028 84.3828 107.755C84.3828 107.462 84.1387 106.905 83.6504 106.085L80.4863 100.636V99.0242C81.4824 98.2039 82.6934 97.5691 84.1192 97.1199C85.5449 96.6707 87.0195 96.446 88.543 96.446C91.0234 96.446 93.0254 96.8953 94.5488 97.7937C96.3262 98.8679 97.2149 100.548 97.2149 102.833V130.577C97.2149 132.257 96.4141 133.477 94.8125 134.239C93.4453 134.923 91.6192 135.264 89.334 135.264C88.0645 135.264 86.8242 135.128 85.6133 134.854C84.4219 134.581 83.4844 134.229 82.8008 133.8C81.4141 132.022 80.0371 130.03 78.6699 127.823L75.6816 122.843C75.1152 122.921 74.832 123.223 74.832 123.751C74.832 124.083 75.1152 124.718 75.6816 125.655L79.3438 131.573V133.126C77.0781 134.591 74.5195 135.323 71.668 135.323C68.8359 135.323 66.6094 134.805 64.9883 133.77C63.3867 132.735 62.5859 131.27 62.5859 129.376ZM118.426 110.391H135.799C136.912 112.012 137.469 113.985 137.469 116.309C137.469 118.614 136.99 120.489 136.033 121.934H134.832V130.723C130.984 134.063 125.906 135.733 119.598 135.733C115.75 135.733 112.332 135.05 109.344 133.682C106.082 132.218 103.553 130.079 101.756 127.266C99.7832 124.18 98.7969 120.391 98.7969 115.899C98.7969 109.512 100.711 104.571 104.539 101.075C108.172 97.7351 113.094 96.0652 119.305 96.0652C122.371 96.0652 125.262 96.5242 127.977 97.4421C130.711 98.3601 132.869 99.5027 134.451 100.87C134.451 102.042 134.305 103.477 134.012 105.177C133.738 106.876 133.387 108.175 132.957 109.073H117.518C116.893 109.737 116.297 110.694 115.73 111.944C115.184 113.194 114.91 114.63 114.91 116.251C114.91 118.477 115.467 120.225 116.58 121.495C117.557 122.647 118.807 123.223 120.33 123.223C120.955 123.223 121.268 123.009 121.268 122.579V121.905H120.945C119.656 121.905 118.582 121.407 117.723 120.411C116.883 119.395 116.463 117.95 116.463 116.075C116.463 113.731 117.117 111.837 118.426 110.391ZM158.885 114.581C158.885 112.628 158.797 111.29 158.621 110.567C158.445 109.825 158.123 109.454 157.654 109.454C157.361 109.454 157.098 109.552 156.863 109.747C156.902 110.098 156.961 110.567 157.039 111.153C157.117 111.739 157.156 112.989 157.156 114.903V116.807C157.156 118.136 157.127 119.102 157.068 119.708C157.01 120.313 156.961 120.831 156.922 121.261C156.902 121.495 156.883 121.729 156.863 121.964C157.098 122.159 157.361 122.257 157.654 122.257C158.123 122.257 158.445 121.895 158.621 121.173C158.797 120.43 158.885 119.083 158.885 117.13V114.581ZM157.713 135.733C154.236 135.733 151.043 135.02 148.133 133.594C145.242 132.149 142.908 129.952 141.131 127.003C139.354 124.034 138.465 120.333 138.465 115.899C138.465 109.473 140.398 104.454 144.266 100.841C147.703 97.657 152.127 96.0652 157.537 96.0652C163.416 96.0652 168.064 97.8914 171.482 101.544C174.92 105.177 176.639 109.962 176.639 115.899C176.639 122.501 174.803 127.54 171.131 131.016C167.791 134.161 163.318 135.733 157.713 135.733Z" fill="#E0DFD5"/>
<path d="M52.4496 50.1422C72.0648 50.1635 91.68 50.1848 111.295 50.2061C115.89 50.2109 115.898 43.0688 111.295 43.064C91.68 43.0427 72.0648 43.0214 52.4496 43.0001C47.8538 42.9952 47.8465 50.1373 52.4496 50.1422Z" fill="#E0DFD5"/>
<path d="M101.677 47.6993C94.3874 58.4696 87.0974 69.24 79.808 80.0103C77.2253 83.8266 83.4101 87.405 85.9752 83.6148C93.2646 72.8445 100.554 62.0742 107.844 51.3038C110.427 47.4875 104.242 43.9098 101.677 47.6993Z" fill="#E0DFD5"/>
<path d="M58.7391 59.2785C68.7141 59.2274 78.6897 59.1769 88.6646 59.1258C90.399 59.1166 92.061 57.6074 91.9801 55.8103C91.9003 54.0218 90.5232 52.4851 88.6646 52.4949C78.6897 52.546 68.7141 52.5965 58.7391 52.6476C57.0054 52.6567 55.3434 54.166 55.4237 55.9631C55.504 57.7516 56.8806 59.2883 58.7391 59.2785Z" fill="#E0DFD5"/>
<path d="M65.5695 67.7964L81.5162 67.8457C83.0687 67.8506 84.5554 66.4776 84.4836 64.8783C84.4112 63.2669 83.18 61.9165 81.5162 61.911C76.2004 61.8946 70.8853 61.8781 65.5695 61.8617C64.017 61.8568 62.5303 63.2297 62.6021 64.829C62.6745 66.4411 63.9057 67.7915 65.5695 67.7964Z" fill="#E0DFD5"/>
<path d="M72.4402 75.8516H78.1845C78.8119 75.8516 79.471 75.5789 79.9146 75.1347C80.3388 74.7105 80.6589 74.0143 80.6315 73.4051C80.5719 72.0791 79.5562 70.9581 78.1845 70.9581H72.4402C71.8128 70.9581 71.1537 71.2314 70.7101 71.675C70.2859 72.0992 69.9664 72.7954 69.9938 73.4051C70.0529 74.7306 71.0685 75.8516 72.4402 75.8516Z" fill="#E0DFD5"/>
<path d="M116.441 58.3238C121.33 55.814 125.81 52.7079 129.949 49.0961C128.08 47.6538 126.21 46.2115 124.34 44.7686C117.22 57.6817 109.135 70.0155 100.135 81.6962C97.3319 85.3348 103.533 88.8949 106.302 85.3013C115.302 73.6206 123.387 61.2862 130.507 48.3738C132.518 44.7279 127.921 41.4088 124.899 44.0463C121.212 47.2625 117.187 49.9232 112.836 52.1566C108.745 54.2561 112.355 60.4215 116.441 58.3238Z" fill="#E0DFD5"/>
</svg>
