<svg width="180" height="180" viewBox="0 0 180 180" fill="none" xmlns="http://www.w3.org/2000/svg">
<path d="M85.3736 24.3398L86.5443 18.0751L90.6646 15.1226L95.3917 18.3428L94.9902 25.4575L94.8227 28.4407L85.2183 27.0942L85.3736 24.3398Z" fill="#E0DFD5"/>
<path d="M39.4453 21.6136C39.9755 21.8742 144.596 28.2318 144.596 28.2318L144.299 33.5096C144.299 33.5096 118.775 36.4458 111.579 55.2634C104.383 74.082 102.862 81.7085 102.862 81.7085L69.838 79.8471C69.838 79.8471 74.8052 67.9245 69.8584 58.3222C64.9117 48.7188 52.557 32.6065 43.3479 29.7765C34.1389 26.9466 36.2802 22.1255 36.2802 22.1255L39.4453 21.6136Z" fill="#D8D7CE"/>
<path d="M48.2622 141.734L36.6655 162.031L53.4143 166.428L61.6323 144.79L48.2622 141.734Z" fill="#E0DFD5"/>
<path d="M109.929 169.998L53.4141 166.429L61.6332 144.79L104.669 147.217L109.929 169.998Z" fill="#E8E9EB"/>
<path d="M127.255 167.368L109.928 169.998L104.669 147.216L118.436 146.458L127.255 167.368Z" fill="#E0DFD5"/>
<path d="M48.2617 141.734L53.4608 141.414L64.6692 144.117L61.6319 144.79L48.2617 141.734Z" fill="#D8D7CE"/>
<path d="M78.6645 92.5686L93.0972 93.6893L99.3557 143.924L66.3271 142.138L78.6645 92.5686Z" fill="#E8E9EB"/>
<path d="M102.361 146.242L104.669 147.217L118.436 146.458L113.134 145.391L102.361 146.242Z" fill="#D8D7CE"/>
<path d="M62.6465 139.706L68.8938 140.127C68.8938 140.127 73.8436 125.68 75.6877 113.121C77.5318 100.563 78.6648 92.5685 78.6648 92.5685L75.3169 93.1795L67.4369 124.857L62.6465 139.706Z" fill="#D8D7CE"/>
<path d="M70.614 93.4961C70.614 93.4961 66.4386 115.976 62.8363 123.448C59.234 130.919 54.4364 138.629 54.9799 138.66C55.5234 138.69 63.5811 140.872 63.5811 140.872C63.5811 140.872 65.844 136.203 68.6218 128.839C71.3997 121.475 76.8184 93.0783 76.8184 93.0783L70.614 93.4961Z" fill="#E0DFD5"/>
<path d="M103.717 142.328L97.4611 142.044C97.4611 142.044 94.1663 127.132 93.7454 114.445C93.3245 101.759 93.0977 93.6885 93.0977 93.6885L96.3546 94.6724L100.625 127.036L103.717 142.328Z" fill="#D8D7CE"/>
<path d="M100.993 95.5155C100.993 95.5155 102.616 118.323 105.355 126.151C108.095 133.979 111.996 142.181 111.453 142.15C110.909 142.12 102.657 143.381 102.657 143.381C102.657 143.381 100.934 138.488 99.0009 130.858C97.0679 123.228 94.8755 94.403 94.8755 94.403L100.993 95.5155Z" fill="#E0DFD5"/>
<path d="M64.6701 144.118L102.36 146.243L104.669 147.216L61.6328 144.791L64.6701 144.118Z" fill="#DEDFE2"/>
<path d="M53.5212 137.119L53.4609 141.413L64.6704 144.118L64.9074 139.91L53.5212 137.119Z" fill="#E0DFD5"/>
<path d="M101.696 141.907L102.36 146.242L113.134 145.391L113.927 140.985L101.696 141.907Z" fill="#E0DFD5"/>
<path d="M102.361 146.242L64.6709 144.117L64.9079 139.91L101.697 141.907L102.361 146.242Z" fill="#E8E9EB"/>
<path d="M125.24 13.0776L119.419 17.1866C119.419 17.1866 121.481 57.2134 108.76 67.6331C96.0381 78.0538 88.6128 87.2895 88.6128 87.2895L92.542 92.8165C92.542 92.8165 104.862 88.257 116.551 72.1958C128.239 56.1356 127.171 52.188 127.452 38.6472C127.733 25.1074 125.24 13.0776 125.24 13.0776Z" fill="#E8E9EB"/>
<path d="M35.5782 12.017L41.5232 16.1894C41.5232 16.1894 40.6721 56.1998 53.7103 66.7585C66.7495 77.3161 74.4547 86.6334 74.4547 86.6334L70.691 92.1196C70.691 92.1196 58.231 87.4262 46.0552 71.2384C33.8793 55.0505 34.8284 51.1131 34.1377 37.5672C33.4471 24.0223 35.5782 12.017 35.5782 12.017Z" fill="#E0DFD5"/>
<path d="M145.871 17.7L139.494 21.1776C139.494 21.1776 135.844 61.0308 121.702 70.0569C107.559 79.0821 98.855 87.4749 98.855 87.4749L101.978 93.3483C101.978 93.3483 114.887 90.0862 128.804 75.3684C142.722 60.6517 142.222 56.6326 144.43 43.2502C146.639 29.8687 145.871 17.7 145.871 17.7Z" fill="#E0DFD5"/>
<path d="M55.7202 9.99999L61.0419 14.7373C61.0419 14.7373 54.4952 54.2788 65.9652 66.0624C77.4351 77.846 83.7754 87.8581 83.7754 87.8581L79.2495 92.9091C79.2495 92.9091 67.5201 86.9927 57.7103 69.7209C47.9005 52.4481 49.4054 48.6455 50.6477 35.1589C51.89 21.6732 55.7202 9.99999 55.7202 9.99999Z" fill="#E8E9EB"/>
<path d="M70.1455 23.5967C69.602 23.566 63.6377 32.6198 63.6377 32.6198C63.6377 32.6198 80.6602 64.4142 79.6795 74.5601C78.6987 84.706 76.9946 89.9419 76.9946 89.9419L95.0684 90.9604C95.0684 90.9604 93.3265 79.1544 99.1243 63.368C104.922 47.5817 115.593 34.852 115.593 34.852L110.595 26.1528L70.1455 23.5967Z" fill="#E0DFD5"/>
<path d="M101.178 96.3701L69.8644 94.6047C68.7354 94.5414 67.8711 93.5739 67.9355 92.445L68.5781 81.0435C68.6415 79.9146 69.6089 79.0503 70.7379 79.1136L102.051 80.879C103.18 80.9424 104.044 81.9099 103.98 83.0388L103.337 94.4403C103.274 95.5702 102.307 96.4335 101.178 96.3701Z" fill="#E8E9EB"/>
<path d="M81.2807 85.1268L81.0161 89.8151L85.6932 92.4305L90.6348 90.3576L90.8984 85.6693L86.2224 83.0539L81.2807 85.1268Z" fill="#565DFF"/>
<path d="M78.3769 31.8256L77.438 38.784L88.0222 55.5245L101.42 39.7668L101.794 33.1455L78.3769 31.8256Z" fill="#565DFF"/>
</svg>
