<svg width="180" height="180" viewBox="0 0 180 180" fill="none" xmlns="http://www.w3.org/2000/svg">
<path d="M53.4087 122.097C53.1584 121.829 53.0031 121.496 52.9674 121.13C52.4965 116.401 48.8689 82.6555 40.4759 74.2613L30.5014 64.288C29.2749 63.0603 30.4817 61.0006 32.1494 61.485C39.2099 63.5361 51.2072 68.6515 58.7916 80.7844C64.2953 89.5916 67.7122 95.417 69.7694 99.0742C70.6015 100.555 72.8486 100.006 72.904 98.3087C73.243 87.9694 73.0298 67.0368 66.5683 56.6987C60.5555 47.0779 55.4832 31.2213 52.8836 22.1799C52.3844 20.4456 54.6056 19.2549 55.7729 20.6305C63.4263 29.6472 78.1625 48.9688 83.6292 69.7461C91.1569 98.3482 99.9382 111.896 96.6767 132.972C94.522 146.894 92.9146 155.453 92.0715 159.657C91.8028 160.997 90.1326 161.462 89.2007 160.462L53.4087 122.097Z" fill="#E0DFD5"/>
<path d="M95.8764 76.6676C95.7458 76.251 95.7791 75.806 95.9763 75.4165C98.7349 69.9633 119.512 29.1298 126.533 22.5771C128.244 20.9796 129.774 19.604 131.116 18.4293C132.53 17.1917 134.597 18.8607 133.686 20.5051C128.025 30.7298 118.685 48.624 116.874 58.4555C114.442 71.6558 113.614 91.4827 113.501 94.457C113.491 94.711 113.424 94.9526 113.303 95.1781L107.847 105.362C107.145 106.674 105.21 106.49 104.766 105.071L95.8764 76.6676Z" fill="#E0DFD5"/>
<path d="M116.44 138.344C115.375 139.171 113.818 138.479 113.735 137.133C113.211 128.593 112.906 104.574 124.526 91.3229C132.039 82.7548 140.177 75.1556 146.207 69.8738C147.665 68.5967 149.77 70.3915 148.732 72.0284C143.16 80.822 135.971 93.7438 135.064 103.114C133.841 115.751 133.28 122.592 133.112 124.716C133.075 125.186 132.842 125.611 132.469 125.9L116.44 138.344Z" fill="#E0DFD5"/>
</svg>
