<svg width="180" height="180" viewBox="0 0 180 180" fill="none" xmlns="http://www.w3.org/2000/svg">
<g clip-path="url(#clip0_1181_20)">
<path d="M25.2237 57.4646L24.9359 58.8186C23.7796 60.313 22.8906 61.4869 22.269 62.3401C21.6516 63.1733 21.3067 63.7605 21.2342 64.1015C21.1105 64.6832 21.3797 65.0444 22.0417 65.1851L30.7322 53.4464C32.3082 52.8379 34.2898 52.7874 36.6769 53.2948C39.084 53.8064 41.0095 54.9076 42.4532 56.5982C44.0233 58.4834 44.5354 60.7098 43.9897 63.2775C43.5334 65.4239 42.3514 67.3845 40.4436 69.1595C38.5401 70.9144 36.2428 72.3025 33.5517 73.3239C32.5806 72.4676 31.6537 71.9456 30.7711 71.758C29.8885 71.5704 29.3555 71.9078 29.1722 72.7704C30.0565 73.1471 30.8336 73.5848 31.5033 74.0836C32.1974 74.5666 32.9557 75.3882 33.7783 76.5484L40.2152 85.6216C38.252 91.9973 34.3116 94.5562 28.394 93.2984C26.2075 92.8337 24.4513 91.8733 23.1254 90.4174C21.5571 88.7213 20.5349 86.4284 20.0589 83.5387L18.7444 75.9631L18.5939 75.9312C17.9319 75.7904 17.5413 76.0009 17.4219 76.5626C17.3451 76.9237 17.4405 77.856 17.708 79.3595C17.9498 80.9833 18.366 83.1684 18.9563 85.9146L18.4639 88.2315C15.9568 89.6694 12.6973 89.962 8.68536 89.1092C6.51891 88.6487 4.76786 87.7629 3.43219 86.4516C1.91298 85.0175 1.3623 83.3175 1.78016 81.3517L8.38054 50.2993C10.8475 48.8529 14.1872 48.5774 18.3998 49.4728C20.5863 49.9375 22.3437 50.7933 23.6721 52.0401C25.1627 53.5101 25.6799 55.3182 25.2237 57.4646ZM64.0392 65.7151L63.7514 67.0691C62.5951 68.5635 61.7061 69.7374 61.0845 70.5906C60.4671 71.4238 60.1221 72.0109 60.0496 72.352C59.926 72.9337 60.1952 73.2949 60.8571 73.4356L69.5477 61.6969C71.1237 61.0884 73.1052 61.0379 75.4923 61.5453C77.8995 62.0569 79.8249 63.1581 81.2687 64.8487C82.8387 66.7339 83.3509 68.9603 82.8051 71.528C82.3489 73.6744 81.1669 75.635 79.2591 77.41C77.3556 79.1649 75.0583 80.553 72.3672 81.5744C71.3961 80.718 70.4692 80.1961 69.5866 80.0085C68.704 79.8208 68.171 80.1583 67.9876 81.0209C68.872 81.3976 69.649 81.8353 70.3188 82.3341C71.0128 82.817 71.7712 83.6387 72.5938 84.7989L79.0307 93.8721C77.0675 100.248 73.127 102.807 67.2094 101.549C65.0229 101.084 63.2668 100.124 61.9409 98.6679C60.3725 96.9717 59.3503 94.6788 58.8743 91.7892L57.5598 84.2136L57.4094 84.1816C56.7474 84.0409 56.3567 84.2514 56.2373 84.8131C56.1606 85.1742 56.2559 86.1064 56.5234 87.6099C56.7653 89.2338 57.1814 91.4189 57.7718 94.1651L57.2793 96.482C54.7723 97.9199 51.5128 98.2125 47.5008 97.3597C45.3344 96.8992 43.5833 96.0133 42.2477 94.7021C40.7284 93.268 40.1778 91.568 40.5956 89.6022L47.196 58.5498C49.6629 57.1034 53.0027 56.8278 57.2152 57.7232C59.4017 58.188 61.1592 59.0438 62.4876 60.2906C63.9782 61.7605 64.4954 63.5687 64.0392 65.7151ZM99.7505 87.2377C99.8769 87.4323 100.111 87.5658 100.452 87.6383C100.793 87.7108 101.098 87.7024 101.369 87.6131C101.496 84.4532 101.528 82.5732 101.467 81.9732C101.37 81.3445 101.101 80.9833 100.66 80.8895C100.459 80.8469 100.205 80.8559 99.899 80.9166L99.7505 87.2377ZM91.8741 94.9982C91.6138 95.2364 91.4581 95.4758 91.4069 95.7165C91.2832 96.2983 91.7204 96.9049 92.7183 97.5363C93.7406 98.1519 95.0234 98.6762 96.5667 99.1091C96.2135 102.053 96.1447 103.758 96.3604 104.223C95.8215 104.884 94.6084 105.412 92.7213 105.808C90.8384 106.184 88.8137 106.141 86.6473 105.681C83.7787 105.071 81.4515 103.937 79.6655 102.278C77.8837 100.6 77.1997 98.7873 77.6133 96.8415C77.7241 96.32 77.8723 95.8693 78.0579 95.4894L90.5557 68.2065C92.3779 67.5245 94.4642 67.1293 96.8145 67.0209C99.1647 66.9124 101.543 67.114 103.951 67.6257C107.401 68.3591 110.226 69.5676 112.426 71.2512C114.933 73.1678 116.221 75.4438 116.29 78.0792L117.119 107.912C114.457 110.176 110.769 110.808 106.055 109.806C103.768 109.32 101.92 108.497 100.51 107.338C99.1001 106.178 98.4267 104.809 98.49 103.229L98.6083 99.4172C99.8162 99.653 101.029 99.6696 102.246 99.4671C103.463 99.2645 104.123 98.9225 104.225 98.4411C104.293 98.1202 104.218 97.8317 104 97.5756C103.123 97.9552 102.103 98.1682 100.94 98.2145C99.7766 98.2608 98.7237 98.1838 97.7809 97.9834C95.0729 97.4078 93.1039 96.4127 91.8741 94.9982ZM136.143 103.338C136.21 103.416 136.434 103.495 136.815 103.576C137.197 103.657 137.515 103.588 137.771 103.37C138.027 103.152 138.226 102.712 138.366 102.05L138.488 101.478C138.646 100.736 138.668 100.185 138.556 99.826C138.464 99.4709 138.217 99.2507 137.816 99.1655C137.435 99.0845 137.165 99.0691 137.008 99.1195C137.007 99.2241 136.98 99.3967 136.929 99.6375L136.143 103.338ZM138.554 91.9947C138.621 92.072 138.845 92.1511 139.227 92.2321C139.608 92.3131 139.931 92.2245 140.195 91.9662C140.46 91.708 140.664 91.2378 140.809 90.5558L140.848 90.3753C141.001 89.6531 141.02 89.1224 140.903 88.7831C140.811 88.4281 140.564 88.2079 140.163 88.1226C139.782 88.0416 139.513 88.0263 139.355 88.0767C139.354 88.1812 139.328 88.3539 139.276 88.5946L138.554 91.9947ZM124.678 76.9374C124.776 76.476 125.268 76.0355 126.153 75.6158C128.018 74.7332 131.049 74.3816 135.246 74.5609C137.425 74.6675 139.778 74.9895 142.306 75.5267C148.324 76.8059 152.63 78.9372 155.224 81.9208C157.498 84.5425 158.28 87.5183 157.572 90.8482C157.317 92.0518 156.854 93.1905 156.186 94.2644C155.522 95.3183 154.736 96.053 153.831 96.4684C152.882 95.7008 151.917 95.2125 150.934 95.0036C150.473 94.9056 150.102 94.9212 149.823 95.0506C149.544 95.1799 149.354 95.4853 149.251 95.9668C152.174 96.7139 154.245 98.2653 155.464 100.621C156.54 102.758 156.791 105.18 156.215 107.888C155.324 112.08 152.92 114.756 149.005 115.916C145.336 117.002 140.191 116.842 133.571 115.434C128.938 114.45 125.567 113.586 123.461 112.845C121.358 112.084 119.941 111.059 119.208 109.771C118.475 108.483 118.344 106.736 118.813 104.529L124.678 76.9374ZM179.761 90.0294L173.154 121.112C172.061 121.718 170.684 122.128 169.024 122.341C167.365 122.555 165.432 122.427 163.225 121.958C161.018 121.489 159.247 120.598 157.912 119.287C156.393 117.853 155.84 116.163 156.253 114.217L162.86 83.1349C163.953 82.5287 165.33 82.1189 166.99 81.9056C168.649 81.6923 170.572 81.8181 172.759 82.2828C174.945 82.7476 176.739 83.6319 178.139 84.9359C179.629 86.4059 180.17 88.1037 179.761 90.0294Z" fill="#e0dfd5"/>
</g>
</svg>
