<svg width="180" height="180" viewBox="0 0 180 180" fill="none" xmlns="http://www.w3.org/2000/svg">
<path d="M9.68496 51.7163C8.6356 55.2977 7.57979 58.9199 7.58302 62.6045C7.58624 66.288 8.7528 70.0984 11.6794 72.8788C13.4964 74.6055 15.8811 75.8452 18.2293 77.0601C54.6 95.8691 91.0524 114.717 129.592 130.307C113.558 105.431 96.8185 80.8651 79.3944 56.6352C78.1429 54.8956 76.8086 53.0882 74.7185 52.0313C72.4435 50.8809 69.6351 50.796 66.9687 50.7444C47.7297 50.3734 28.4907 50.0014 9.25167 49.6294" fill="#E4B363"/>
<path d="M7.15018 51.0174C5.72021 55.8987 4.43002 60.8595 5.26219 65.9697C6.03094 70.6919 8.87583 74.5055 12.8443 77.0665C17.0546 79.7845 21.7757 81.851 26.2258 84.1486C30.8533 86.5377 35.483 88.9213 40.1191 91.2942C58.6442 100.774 77.2714 110.067 96.1986 118.723C106.994 123.66 117.889 128.385 128.893 132.842C131.043 133.712 133.032 130.794 131.862 128.98C120.223 110.929 108.253 93.0919 95.9589 75.4817C92.899 71.0983 89.8186 66.7288 86.7189 62.3733C85.1416 60.1574 83.5601 57.9447 81.972 55.7363C80.5969 53.8247 79.2347 51.956 77.3134 50.5562C73.2137 47.5672 67.4906 48.1263 62.6932 48.0328C57.1712 47.9263 51.6491 47.8199 46.1271 47.7134C33.8347 47.4758 21.5434 47.2382 9.25213 47.0006C5.86751 46.9361 5.86751 52.1936 9.25213 52.2582C19.9404 52.4646 30.6286 52.671 41.3168 52.8774C46.6615 52.9807 52.005 53.0839 57.3497 53.1871C60.0215 53.2387 62.6932 53.2903 65.365 53.3419C67.6766 53.3871 70.0893 53.2753 72.3343 53.9171C74.2072 54.4526 75.5157 55.7782 76.65 57.3082C78.1692 59.3553 79.6293 61.4508 81.1098 63.527C84.1127 67.7373 87.0984 71.9606 90.0637 76.1967C96.0836 84.7948 102.026 93.4456 107.89 102.15C114.467 111.912 120.944 121.741 127.321 131.633C128.312 130.346 129.301 129.058 130.291 127.771C111.673 120.232 93.4054 111.86 75.3479 103.07C57.3669 94.3186 39.5922 85.1507 21.8294 75.9656C17.7169 73.8389 12.7056 71.895 10.9982 67.1858C9.23171 62.3153 10.8283 57.1652 12.2196 52.4151C13.1733 49.1617 8.10063 47.7715 7.15018 51.0174Z" fill="#E3002D"/>
<path d="M169.46 54.0408C170.509 57.4039 171.565 60.8068 171.561 64.2667C171.558 67.7277 170.392 71.3058 167.465 73.9174C165.648 75.5398 163.263 76.7042 160.915 77.8439C124.544 95.511 88.0921 113.213 49.5527 127.855C65.5867 104.492 82.3259 81.4188 99.7501 58.6608C101.002 57.0265 102.336 55.3299 104.426 54.3365C106.701 53.2559 109.509 53.1764 112.176 53.128C131.415 52.7796 150.654 52.4302 169.893 52.0808" fill="#E4B363"/>
<path d="M166.925 54.7396C168.198 58.8242 169.718 63.2753 168.473 67.5513C167.29 71.6133 163.772 73.5281 160.21 75.271C151.417 79.5759 142.596 83.8293 133.767 88.0622C115.983 96.5894 98.1067 104.928 79.9815 112.707C69.6922 117.123 59.319 121.34 48.8544 125.32C49.8436 126.608 50.8327 127.895 51.8229 129.182C63.382 112.345 75.254 95.7238 87.4324 79.3297C90.4665 75.2452 93.5189 71.1746 96.5907 67.118C98.1819 65.0171 99.7775 62.9195 101.379 60.8261C102.478 59.3875 103.588 57.8199 105.187 56.905C106.986 55.8771 109.212 55.8309 111.23 55.7771C113.86 55.7062 116.493 55.6782 119.123 55.6309C124.289 55.5374 129.455 55.4438 134.621 55.3503C146.378 55.1363 158.135 54.9235 169.892 54.7095C173.272 54.6482 173.282 49.3907 169.892 49.4519C159.204 49.6465 148.516 49.8401 137.828 50.0336C132.484 50.1314 127.139 50.2282 121.796 50.325C119.123 50.3733 116.451 50.4217 113.779 50.4701C111.282 50.5153 108.768 50.5099 106.306 50.9883C101.368 51.9495 98.7399 55.6793 95.8789 59.4295C92.6825 63.6172 89.5075 67.8201 86.3508 72.0369C80.0589 80.4457 73.8466 88.9137 67.7171 97.4409C60.8006 107.063 53.9894 116.759 47.2825 126.528C46.0364 128.344 48.1308 131.197 50.2521 130.39C69.6578 123.009 88.7366 114.795 107.608 106.146C126.156 97.6462 144.54 88.7793 162.865 79.8114C167.602 77.4923 171.72 74.5689 173.423 69.3393C175.152 64.028 173.593 58.4693 171.994 53.3419C170.991 50.1228 165.914 51.4969 166.925 54.7396Z" fill="#E3002D"/>
</svg>
