<svg width="180" height="180" viewBox="0 0 180 180" fill="none" xmlns="http://www.w3.org/2000/svg">
<g clip-path="url(#clip0_1181_16)">
<path d="M7.06044 117.691L1.05881 89.4553C0.851173 88.4784 1.45909 87.5049 2.88257 86.5347C4.32084 85.5418 6.10138 84.8197 8.2242 84.3685C9.42651 84.1129 10.5856 84.0236 11.7015 84.1006C12.8322 84.1548 13.7273 84.3474 14.3867 84.6785C15.3646 85.4917 16.2807 86.3376 17.135 87.2163C17.9894 88.0949 19.9296 90.1565 22.9558 93.401C23.1625 93.357 23.3363 93.2514 23.4775 93.0839C23.6186 92.9165 23.6612 92.7012 23.6053 92.4382C23.5454 92.1565 23.1968 91.671 22.5594 90.9818L18.402 86.3874L18.0726 84.8375C18.8629 83.8448 19.8979 82.9867 21.1774 82.2632C22.457 81.5396 23.8294 81.0221 25.2947 80.7106C27.6806 80.2035 29.698 80.2263 31.347 80.779C33.2761 81.4488 34.4743 82.8827 34.9415 85.0807L40.6137 111.766C40.9571 113.382 40.4364 114.72 39.0517 115.78C37.8764 116.717 36.1898 117.419 33.9918 117.886C32.7707 118.146 31.5499 118.268 30.3292 118.252C29.1274 118.233 28.1538 118.086 27.4084 117.813C25.7112 116.387 23.9795 114.752 22.2133 112.909L18.3208 108.729C17.792 108.92 17.5815 109.269 17.6893 109.777C17.7572 110.096 18.1593 110.649 18.8958 111.435L23.6281 116.378L23.9455 117.872C22.0658 119.744 19.7546 120.971 17.0118 121.554C14.2879 122.133 12.0404 122.091 10.2696 121.426C8.51748 120.758 7.44777 119.513 7.06044 117.691ZM53.3755 80.6323L59.5628 109.741C58.8583 110.676 57.8368 111.551 56.4981 112.366C55.1594 113.181 53.4568 113.808 51.3903 114.247C49.3238 114.686 47.4695 114.599 45.8273 113.986C43.9813 113.338 42.8646 112.103 42.4773 110.28L36.29 81.1714C36.9944 80.2363 38.016 79.3614 39.3547 78.5467C40.6934 77.732 42.3866 77.1071 44.4343 76.6718C46.482 76.2366 48.3531 76.3101 50.0476 76.8924C51.8829 77.5822 52.9921 78.8288 53.3755 80.6323ZM77.6976 96.403C77.8855 96.363 78.0446 96.2801 78.1749 96.1543L77.6298 93.59C78.7236 92.4543 80.3585 91.3705 82.5346 90.3385C84.7295 89.3026 86.9165 88.553 89.0957 88.0898C90.307 88.8926 91.457 90.2386 92.5458 92.1277C93.6494 93.9941 94.3936 95.7404 94.7786 97.3668C94.5626 98.1981 94.0956 99.1417 93.3775 100.198C92.6783 101.249 91.7772 102.275 90.6742 103.276C87.9471 105.779 84.564 107.461 80.525 108.319C74.7389 109.549 69.8259 108.836 65.786 106.18C61.6254 103.511 58.9062 99.17 57.6284 93.1585C56.3466 87.1282 57.219 81.9948 60.2455 77.7583C61.5712 75.8665 63.2512 74.3018 65.2854 73.0644C67.3157 71.8082 69.5425 70.9226 71.9659 70.4075C76.7 69.4012 80.8229 69.7226 84.3346 71.3716C87.8463 73.0206 89.9596 75.5264 90.6743 78.8891C91.2134 81.4253 90.8331 83.4696 89.5334 85.0221C88.2297 86.5558 86.2441 87.6062 83.5764 88.1732C82.1111 88.4847 80.5606 88.4412 78.9247 88.0428C77.2849 87.6256 76.2562 87.1276 75.8386 86.5487C75.5112 85.0083 75.2818 83.7906 75.1505 82.8957C75.109 82.8849 75.0412 82.8895 74.9473 82.9094L74.75 82.9514C74.4682 83.0113 74.2608 83.1437 74.1276 83.3487C74.0093 83.5309 73.9383 83.8897 73.9146 84.4248C73.9097 84.956 74.1468 86.3488 74.626 88.6031C75.772 93.9947 76.7959 96.5946 77.6976 96.403ZM102.788 64.7984L119.048 61.3424C119.784 62.1283 120.398 63.0288 120.888 64.0437C121.375 65.0398 121.708 65.9605 121.888 66.8059C122.291 68.7033 122.219 70.2109 121.671 71.3287C121.142 72.4425 120.21 73.1412 118.877 73.4247L107.52 75.8385C106.825 75.9863 106.536 76.3325 106.652 76.8773L106.699 77.1028C106.723 77.2155 106.758 77.2866 106.804 77.3162L120.273 74.4532C120.735 74.9636 121.182 75.6344 121.614 76.4654C122.043 77.3756 122.338 78.2064 122.497 78.9579C122.972 81.1934 122.931 83.0284 122.372 84.4627L116.257 85.7625C113.401 86.3694 111.49 86.8934 110.524 87.3345C109.553 87.7568 108.962 88.069 108.749 88.2712C108.541 88.4922 108.465 88.7342 108.521 88.9972C108.577 89.2602 108.752 89.4389 109.047 89.5333C109.956 89.0063 110.932 88.5632 111.975 88.2041C113.356 87.7731 114.873 87.3819 116.526 87.0305L124.444 85.3474C125.934 86.7195 126.92 88.542 127.403 90.8151C127.675 92.0926 127.775 93.3476 127.703 94.5802C127.631 95.8129 127.352 96.854 126.865 97.7036L105.759 102.19C103.429 102.685 101.44 102.519 99.7916 101.691C97.9956 100.816 96.85 99.214 96.3549 96.8845L90.6587 70.0863C90.467 69.1845 91.3605 68.3074 93.3391 67.4549C95.3177 66.6023 98.4674 65.7168 102.788 64.7984ZM146.64 54.9474C148.894 54.4682 150.978 54.6635 152.89 55.5332C154.803 56.4029 155.999 57.9649 156.478 60.2192L159.808 75.8868C160.823 80.6584 160.149 84.6499 157.789 87.8613C155.424 91.054 151.668 93.1973 146.52 94.2914C141.392 95.3815 137.13 94.962 133.736 93.0329C130.285 91.1157 128.042 87.7243 127.008 82.8587L122.737 62.767C124.579 60.53 126.955 59.102 129.867 58.483C132.309 57.9639 134.382 58.2008 136.085 59.1935C137.785 60.1675 138.912 61.9601 139.467 64.5714L142.959 80.9998C143.197 81.1061 143.448 81.1314 143.711 81.0755C143.993 81.0156 144.176 80.9079 144.261 80.7524C144.361 80.5742 144.368 80.2878 144.285 79.8933L140.954 64.2257C140.703 63.0422 140.447 62.1149 140.186 61.4438C139.926 60.7726 139.553 60.1255 139.067 59.5023C140.922 57.1445 143.446 55.6262 146.64 54.9474ZM173.119 70.613C172.05 70.3885 171.14 70.3562 170.389 70.5159C169.637 70.6756 169.335 71.103 169.483 71.7981L169.507 71.9108C171.681 71.6059 173.677 72.0847 175.497 73.3473C177.312 74.5911 178.454 76.312 178.921 78.5099C179.384 80.6891 178.987 82.7468 177.73 84.683C176.449 86.6045 174.692 87.8028 172.456 88.278C170.22 88.7531 168.137 88.3714 166.204 87.1328C164.287 85.8714 163.093 84.1323 162.621 81.9156C162.302 80.4127 162.384 78.9521 162.868 77.5337C163.367 76.0925 164.168 74.8718 165.271 73.8716C163.728 72.1575 162.349 70.1042 161.134 67.7118C159.918 65.3195 159.021 62.7613 158.442 60.0373L156.49 50.851C157.159 50.1197 158.085 49.4418 159.268 48.8173C160.45 48.1928 161.69 47.7428 162.986 47.4673C165.804 46.8684 167.985 47.151 169.528 48.3152C171.086 49.4566 172.223 51.7086 172.937 55.0713L173.321 56.8748C174.243 61.2144 174.176 65.7938 173.119 70.613Z" fill="#b0233f"/>
</g>
</svg>
