<svg width="180" height="180" viewBox="0 0 180 180" fill="none" xmlns="http://www.w3.org/2000/svg">
<g clip-path="url(#clip0_1181_11)">
<path d="M24.1341 129.112C24.2286 129.156 24.4695 129.137 24.8566 129.055C25.2438 128.972 25.5112 128.777 25.6586 128.469C25.8061 128.161 25.8084 127.67 25.6654 126.998L25.542 126.417C25.3817 125.663 25.1752 125.143 24.9225 124.855C24.6902 124.564 24.3702 124.462 23.9627 124.548C23.5755 124.631 23.3192 124.728 23.1939 124.84C23.236 124.937 23.283 125.108 23.3349 125.353L24.1341 129.112ZM21.6846 117.589C21.7792 117.632 22.02 117.613 22.4072 117.531C22.7944 117.449 23.0574 117.233 23.1962 116.884C23.335 116.535 23.3307 116.014 23.1835 115.321L23.1445 115.138C22.9886 114.404 22.7864 113.904 22.538 113.637C22.3057 113.346 21.9858 113.244 21.5782 113.33C21.191 113.412 20.9348 113.51 20.8094 113.621C20.8515 113.719 20.8985 113.89 20.9505 114.135L21.6846 117.589ZM2.58527 109.348C2.48564 108.88 2.76021 108.267 3.40896 107.512C4.77499 105.922 7.44255 104.344 11.4116 102.776C13.4777 101.975 15.7946 101.301 18.3622 100.755C24.4756 99.4558 29.3527 99.6545 32.9934 101.351C36.1862 102.845 38.1421 105.283 38.8612 108.666C39.1211 109.889 39.1627 111.137 38.9859 112.41C38.8049 113.662 38.3798 114.668 37.7107 115.428C36.5137 115.108 35.4159 115.053 34.4174 115.266C33.9487 115.365 33.6116 115.533 33.406 115.768C33.2005 116.003 33.1497 116.366 33.2536 116.855C36.2752 116.34 38.8381 116.924 40.9422 118.607C42.824 120.145 44.0572 122.29 44.642 125.041C45.5473 129.3 44.4226 132.776 41.2679 135.47C38.3114 137.994 33.4708 139.971 26.746 141.4C22.0387 142.401 18.5543 142.993 16.2928 143.175C14.027 143.337 12.2881 142.972 11.076 142.079C9.86396 141.187 9.0197 139.62 8.54324 137.378L2.58527 109.348ZM64.5575 110.968C64.1243 108.93 63.7359 107.553 63.3922 106.838C63.0442 106.103 62.6257 105.787 62.1366 105.891C61.831 105.956 61.5775 106.117 61.3763 106.372C61.495 106.731 61.6601 107.207 61.8716 107.801C62.083 108.395 62.401 109.69 62.8255 111.687L63.2478 113.674C63.5423 115.06 63.7262 116.075 63.7993 116.72C63.8725 117.364 63.9363 117.915 63.9908 118.372C64.0224 118.621 64.054 118.87 64.0856 119.119C64.3735 119.271 64.6702 119.314 64.9759 119.249C65.465 119.145 65.7211 118.697 65.7442 117.904C65.763 117.09 65.5559 115.665 65.1227 113.627L64.5575 110.968ZM68.0258 133.297C64.3985 134.068 60.9086 134.032 57.556 133.19C54.2195 132.323 51.2971 130.548 48.7886 127.865C46.2758 125.162 44.5278 121.498 43.5446 116.872C42.1195 110.167 43.0237 104.501 46.2573 99.8738C49.1378 95.7898 53.4004 93.1479 59.0451 91.9481C65.1789 90.6443 70.4339 91.5188 74.81 94.5715C79.2022 97.5995 82.0567 102.211 83.3735 108.406C84.8376 115.294 84.0395 120.958 80.9795 125.4C78.1922 129.422 73.8743 132.054 68.0258 133.297ZM96.3435 126.288C94.0815 126.768 92.2012 126.54 90.7026 125.602C89.2244 124.659 88.2275 122.975 87.7121 120.55L81.3578 90.6558C82.2429 89.5092 83.4078 88.5268 84.8526 87.7085C86.3134 86.8656 87.8794 86.2665 89.5504 85.9113C92.0161 85.3872 94.2348 85.5546 96.2065 86.4134C98.3554 87.4049 99.6898 89.1234 100.21 91.5688L103.764 108.289C102.644 108.633 101.593 109.198 100.609 109.982C99.6213 110.746 99.188 111.413 99.3093 111.983C99.3829 112.33 99.6393 112.584 100.078 112.746C101.736 110.626 104.552 109.144 108.526 108.299L115.77 106.759C117.618 108.837 118.804 111.109 119.328 113.575C119.588 114.797 119.662 116.198 119.55 117.777C119.438 119.355 119.11 120.618 118.566 121.564L96.3435 126.288ZM137.185 95.5302C136.752 93.4924 136.363 92.116 136.02 91.401C135.672 90.6656 135.253 90.3499 134.764 90.4539C134.458 90.5188 134.205 90.6792 134.004 90.935C134.122 91.2931 134.288 91.7692 134.499 92.3632C134.71 92.9572 135.028 94.2527 135.453 96.2498L135.875 98.2367C136.17 99.6224 136.354 100.638 136.427 101.282C136.5 101.927 136.564 102.478 136.618 102.935C136.65 103.184 136.682 103.433 136.713 103.681C137.001 103.833 137.298 103.877 137.603 103.812C138.092 103.708 138.349 103.259 138.372 102.466C138.391 101.653 138.183 100.227 137.75 98.1896L137.185 95.5302ZM140.653 117.86C137.026 118.631 133.536 118.595 130.184 117.753C126.847 116.886 123.925 115.111 121.416 112.428C118.903 109.725 117.155 106.06 116.172 101.434C114.747 94.7299 115.651 89.0639 118.885 84.4364C121.765 80.3524 126.028 77.7105 131.673 76.5107C137.806 75.2069 143.061 76.0814 147.438 79.134C151.83 82.162 154.684 86.7735 156.001 92.9684C157.465 99.8562 156.667 105.521 153.607 109.963C150.82 113.984 146.502 116.616 140.653 117.86ZM170.482 91.8072C169.323 91.5638 168.336 91.5287 167.521 91.7019C166.706 91.8752 166.378 92.3388 166.538 93.0928L166.564 93.2151C168.922 92.8843 171.088 93.4037 173.062 94.7733C175.031 96.1225 176.269 97.9892 176.776 100.373C177.278 102.737 176.847 104.969 175.484 107.07C174.095 109.154 172.188 110.454 169.763 110.969C167.338 111.485 165.078 111.071 162.982 109.727C160.902 108.359 159.606 106.472 159.095 104.068C158.748 102.437 158.838 100.853 159.363 99.3144C159.904 97.7511 160.772 96.427 161.969 95.342C160.295 93.4826 158.8 91.2553 157.481 88.6602C156.163 86.0651 155.19 83.2902 154.562 80.3353L152.444 70.3705C153.17 69.5772 154.174 68.8419 155.457 68.1645C156.74 67.4871 158.085 66.9989 159.491 66.7001C162.547 66.0503 164.913 66.3569 166.587 67.6198C168.277 68.8579 169.51 71.3008 170.285 74.9485L170.701 76.9048C171.702 81.6121 171.629 86.5796 170.482 91.8072Z" fill="#e0dfd5"/>
<path d="M21.1567 82.0198C21.8032 81.7546 22.068 81.3469 21.951 80.7966C21.8297 80.2261 21.512 79.6333 20.998 79.0184C20.4999 78.3788 19.8374 77.8168 19.0102 77.3324C16.8501 76.0876 14.2212 75.7944 11.1238 76.4528C9.59542 76.7777 8.22309 77.3356 7.00681 78.1266C5.44912 77.7123 4.08793 76.8195 2.92323 75.4484C1.75854 74.0772 0.985603 72.495 0.604431 70.7017C-0.391812 66.0148 0.795643 61.9819 4.1668 58.6029C7.06571 55.7078 10.9809 53.7361 15.9124 52.6879C19.5805 51.9082 22.7522 51.6494 25.4276 51.9113C28.0987 52.1529 30.359 52.7161 32.2084 53.601C32.9629 54.8463 33.494 56.1924 33.8015 57.6392C34.1091 59.0861 34.1948 60.4416 34.0589 61.7058C33.9229 62.9701 33.564 64.0368 32.9819 64.9059C32.1808 64.5437 30.8171 64.2905 28.8908 64.1462C26.9646 64.0018 25.2576 64.0878 23.77 64.404C22.2824 64.7202 21.3034 65.0241 20.8329 65.3158C20.3828 65.6032 20.1989 65.9404 20.2812 66.3276C20.3202 66.511 20.3876 66.6777 20.4834 66.8278C21.1576 66.4928 22.0552 66.2061 23.176 65.9679C27.1497 65.1233 30.589 65.372 33.494 66.714C36.9253 68.3275 39.1174 71.3758 40.0704 75.859C40.9107 79.8124 40.0084 83.4333 37.3634 86.7217C34.4926 90.2498 30.1329 92.6355 24.2844 93.8786C21.0647 94.563 18.2209 94.9119 15.7531 94.9253C13.2896 94.959 10.8093 94.613 8.31213 93.8871C6.31164 91.9908 5.06883 89.9014 4.5837 87.6191C4.09424 85.3164 4.47381 83.2443 5.72239 81.4028C6.97097 79.5613 8.73643 78.3979 11.0188 77.9128C13.3215 77.4234 15.2959 77.4936 16.942 78.1234C18.6085 78.7489 20.0134 80.0477 21.1567 82.0198ZM60.6404 63.2121C60.2073 61.1743 59.8189 59.7979 59.4752 59.0829C59.1272 58.3475 58.7087 58.0318 58.2196 58.1358C57.9139 58.2008 57.6605 58.3611 57.4593 58.6169C57.578 58.975 57.7431 59.4511 57.9545 60.0451C58.166 60.6391 58.484 61.9347 58.9085 63.9317L59.3308 65.9186C59.6253 67.3043 59.8092 68.3195 59.8823 68.9642C59.9554 69.6089 60.0193 70.1598 60.0738 70.6168C60.1054 70.8656 60.137 71.1145 60.1686 71.3634C60.4565 71.5152 60.7532 71.5586 61.0589 71.4936C61.548 71.3897 61.8041 70.9412 61.8272 70.1482C61.846 69.3349 61.6389 67.9093 61.2057 65.8715L60.6404 63.2121ZM64.1088 85.5415C60.4815 86.3125 56.9916 86.2769 53.639 85.4347C50.3025 84.5678 47.3801 82.7929 44.8716 80.1099C42.3588 77.4066 40.6108 73.7421 39.6275 69.1162C38.2025 62.4119 39.1067 56.7459 42.3402 52.1183C45.2208 48.0343 49.4834 45.3924 55.1281 44.1926C61.2619 42.8888 66.5169 43.7633 70.893 46.816C75.2852 49.8439 78.1397 54.4554 79.4565 60.6503C80.9205 67.5381 80.1225 73.2028 77.0625 77.6444C74.2752 81.666 69.9573 84.2984 64.1088 85.5415ZM92.4265 78.532C90.1645 79.0128 88.2842 78.7841 86.7856 77.8461C85.3073 76.9036 84.3105 75.2199 83.7951 72.7949L77.4408 42.9003C78.3259 41.7537 79.4908 40.7713 80.9356 39.953C82.3964 39.11 83.9623 38.511 85.6333 38.1558C88.0991 37.6317 90.3178 37.799 92.2894 38.6579C94.4384 39.6494 95.7727 41.3679 96.2925 43.8132L99.8465 60.5335C98.727 60.8779 97.6755 61.4422 96.692 62.2263C95.7042 62.99 95.271 63.6572 95.3923 64.2278C95.4659 64.5742 95.7223 64.8285 96.1615 64.9908C97.8194 62.8706 100.635 61.3882 104.609 60.5435L111.853 59.0037C113.701 61.0816 114.887 63.3535 115.411 65.8193C115.671 67.0419 115.745 68.4426 115.633 70.0211C115.521 71.5997 115.193 72.8621 114.649 73.8085L92.4265 78.532ZM133.268 47.7747C132.835 45.7369 132.446 44.3605 132.103 43.6455C131.755 42.9101 131.336 42.5944 130.847 42.6983C130.541 42.7633 130.288 42.9237 130.087 43.1794C130.205 43.5376 130.371 44.0137 130.582 44.6077C130.793 45.2017 131.111 46.4972 131.536 48.4943L131.958 50.4811C132.253 51.8668 132.437 52.8821 132.51 53.5268C132.583 54.1715 132.647 54.7223 132.701 55.1793C132.733 55.4282 132.764 55.6771 132.796 55.9259C133.084 56.0777 133.381 56.1211 133.686 56.0562C134.175 55.9522 134.432 55.5037 134.455 54.7108C134.473 53.8974 134.266 52.4718 133.833 50.434L133.268 47.7747ZM136.736 70.104C133.109 70.8751 129.619 70.8395 126.266 69.9972C122.93 69.1303 120.008 67.3554 117.499 64.6725C114.986 61.9692 113.238 58.3046 112.255 53.6788C110.83 46.9744 111.734 41.3084 114.968 36.6808C117.848 32.5969 122.111 29.955 127.756 28.7552C133.889 27.4514 139.144 28.3258 143.521 31.3785C147.913 34.4065 150.767 39.018 152.084 45.2129C153.548 52.1007 152.75 57.7654 149.69 62.207C146.903 66.2286 142.585 68.8609 136.736 70.104Z" fill="#e0dfd5"/>
</g>

</svg>
