<svg width="180" height="180" viewBox="0 0 180 180" fill="none" xmlns="http://www.w3.org/2000/svg">
<path d="M18.996 53.5587H65.1129C65.8605 53.5587 66.582 53.839 67.1315 54.3462L79.5448 65.7577C80.4569 66.5963 80.756 67.9096 80.2974 69.0597L68.1645 99.4949C67.5277 101.091 65.6786 101.821 64.1235 101.09L46.4705 92.7936C44.7571 91.9873 44.2176 89.8105 45.3565 88.2977L51.7737 79.7747C53.4148 77.5953 51.512 74.5287 48.8343 75.0533C43.9895 76.0041 37.7567 75.6651 31.2261 71.203C23.8618 66.1701 19.3411 61.6444 16.687 58.4358C15.0796 56.4919 16.4739 53.5587 18.996 53.5587Z" fill="#B0233F"/>
<path d="M161.004 53.5587H114.887C114.14 53.5587 113.418 53.839 112.869 54.3462L100.455 65.7577C99.5431 66.5963 99.244 67.9096 99.7026 69.0597L111.836 99.4949C112.472 101.091 114.321 101.821 115.877 101.09L133.53 92.7936C135.243 91.9873 135.782 89.8105 134.644 88.2977L128.226 79.7747C126.585 77.5953 128.488 74.5287 131.166 75.0533C136.012 76.0041 142.243 75.6651 148.774 71.203C156.138 66.1701 160.659 61.6444 163.313 58.4358C164.92 56.4919 163.526 53.5587 161.004 53.5587Z" fill="#B0233F"/>
<path d="M86.8771 74.9107L88.153 76.0421C89.3742 77.1262 91.2408 77.0265 92.3398 75.8166C93.9871 74.0048 96.9951 74.8397 97.4749 77.2408L109.526 137.707C109.759 138.876 109.273 140.071 108.292 140.748L90.2277 153.191C89.1673 153.922 87.7568 153.89 86.7313 153.11L71.0919 141.233C70.1873 140.546 69.7511 139.403 69.968 138.288L81.9676 76.5729C82.4087 74.3051 85.1488 73.378 86.8771 74.9107Z" fill="#B0233F"/>
<path d="M70.026 28.3648L63.6337 38.2586C62.825 39.5109 63.0642 41.1694 64.1956 42.1413L88.9587 63.4254C90.1487 64.4484 91.9281 64.3749 93.0296 63.2572L113.905 42.0765C114.908 41.0597 115.049 39.4747 114.243 38.2972L107.767 28.8383C107.221 28.0408 106.321 27.5574 105.354 27.5412L72.5817 27.0004C71.5512 26.9842 70.5855 27.4988 70.026 28.3648Z" fill="#B0233F"/>
</svg>
