<svg width="180" height="180" viewBox="0 0 180 180" fill="none" xmlns="http://www.w3.org/2000/svg">
<path d="M14.0103 59.5139C53.8717 59.5572 93.7332 59.6005 133.593 59.6438C142.933 59.6537 142.948 45.1397 133.593 45.1298C93.7332 45.0865 53.8717 45.0433 14.0103 45C4.67067 44.9901 4.65583 59.504 14.0103 59.5139Z" fill="#E0DFD5"/>
<path d="M114.048 54.5494C99.2349 76.4366 84.4204 98.3238 69.6071 120.211C64.3586 127.966 76.9272 135.238 82.1399 127.536C96.9532 105.649 111.766 83.7616 126.581 61.8744C131.829 54.119 119.261 46.8484 114.048 54.5494Z" fill="#E0DFD5"/>
<path d="M26.7921 78.0808C47.0629 77.977 67.335 77.8743 87.6058 77.7704C91.1304 77.7519 94.5079 74.6848 94.3434 71.0329C94.1814 67.3982 91.3827 64.2755 87.6058 64.2953C67.335 64.3992 47.0629 64.5018 26.7921 64.6057C23.2687 64.6243 19.8913 67.6913 20.0545 71.3433C20.2178 74.9779 23.0152 78.1006 26.7921 78.0808Z" fill="#E0DFD5"/>
<path d="M40.6729 95.3911L73.0796 95.4913C76.2344 95.5012 79.2557 92.7112 79.1097 89.4611C78.9626 86.1863 76.4607 83.4421 73.0796 83.431C62.2769 83.3976 51.4756 83.3642 40.6729 83.3308C37.5181 83.3209 34.4968 86.1109 34.6428 89.361C34.7899 92.637 37.2918 95.3812 40.6729 95.3911Z" fill="#E0DFD5"/>
<path d="M54.635 111.76H66.3083C67.5833 111.76 68.9227 111.206 69.8242 110.303C70.6862 109.441 71.3367 108.026 71.2811 106.788C71.1599 104.093 69.0958 101.815 66.3083 101.815H54.635C53.36 101.815 52.0206 102.371 51.1191 103.272C50.2571 104.134 49.6078 105.549 49.6635 106.788C49.7834 109.482 51.8475 111.76 54.635 111.76Z" fill="#E0DFD5"/>
<path d="M144.052 76.1402C153.987 71.04 163.091 64.7278 171.503 57.388C167.704 54.457 163.904 51.526 160.104 48.5938C145.635 74.8354 129.205 99.8997 110.915 123.637C105.219 131.031 117.821 138.266 123.448 130.963C141.738 107.226 158.167 82.1604 172.637 55.92C176.723 48.5109 167.382 41.7659 161.239 47.1258C153.747 53.6618 145.568 59.0687 136.727 63.6074C128.413 67.874 135.748 80.4031 144.052 76.1402Z" fill="#E0DFD5"/>
</svg>
